/* XPM */
static char *_518100108056[] = {
/* columns rows colors chars-per-pixel */
"128 128 68 1 ",
"  c #271D13",
". c #2A1F16",
"X c #2B1E18",
"o c #2B2117",
"O c #2E241B",
"+ c #32261E",
"@ c #33291E",
"# c #392C1E",
"$ c #2F2621",
"% c #2E2921",
"& c #322721",
"* c #352B23",
"= c #3A2E24",
"- c #362E2A",
"; c #3A2F28",
": c #373025",
"> c #3C3126",
", c #363129",
"< c #3D332A",
"1 c #3F382C",
"2 c #3C3531",
"3 c #3F3831",
"4 c #413326",
"5 c #42352B",
"6 c #49372A",
"7 c #45392D",
"8 c #4A3B2E",
"9 c #503F2F",
"0 c #423730",
"q c #453A31",
"w c #4B3D33",
"e c #453E38",
"r c #4A3F39",
"t c #513F32",
"y c #4D402F",
"u c #474033",
"i c #4D4135",
"p c #474038",
"a c #4E4239",
"s c #524335",
"d c #584637",
"f c #5A4937",
"g c #53453A",
"h c #59463A",
"j c #56493C",
"k c #5A4B3D",
"l c #5D503F",
"z c #604F3F",
"x c #61503E",
"c c #554741",
"v c #564A41",
"b c #5B4D42",
"n c #5E5143",
"m c #5E5249",
"M c #614E41",
"N c #625345",
"B c #685747",
"V c #635549",
"C c #68564A",
"Z c #66594A",
"A c #6A5A4C",
"S c #675A51",
"D c #6C5D51",
"F c #6E6152",
"G c #726354",
"H c #756558",
"J c #776A5A",
"K c #786B5B",
/* pixels */
"1wjfkBz6+%%%2ujkgs=7Vb5545<5q0><<4ia7uj8isskNdikk677w7wq;5;X=rgu1awa5r44=kniysjj9st7rw<;<-*;&=wMbcw44gr6bbVc7=4r6<*;>-OO@qvvc,%1",
"1wjkkBz6@%%,13ijtr44bh5r;5;;57><>>is8ijwwdhbnd8sl4y7sqrq;5=+-raq5aag6w5=@ikuigss9dt6rw5<<-**==wmbg6=5tswghbg446rr<=;>-@O*uvmc2*,",
"<wvfdzk6@+%%,1usgt56cgrcwr4;11,->4agwij8rsfbNdydf6yyg8rq;5;+=wa75rgcwr5=#ijiijss89i6qq51>*@*=4wbcgq=4rs8gbks748rq1;*>*@@>avvj1@,",
"<ejfdzk7O+,,*<wdggqqhrwgrw0;51=*1>ij7us66sfbNffNs4y8rqtq;<*O@7e74rarqw5==gngiysj9sw6w6<5,&@*=5rvggw44trqbbkr5458q<>>>:&&1wcca1*>",
"<wkfdzk6o+,,*=wkgw45rtw8;<;;05>>5>as78s46shhkkxAf7w6r5rw;5&+*1p37rgqqqq4@ylsuyslsd9wrq70<*@*>7rgtgw45tg5ghhr4557q551<;@*5eaau<;1",
"3abfdzz8o*2,*;wkt547rgr05<>>qq<>54ii>5847ihsddkAj6wqt0tr5;&O@7ausbmqwq64@ijsuyjndt66rq>5--@*=5agtgw44gg67wr64576rqq5<-*@1uqee1;5",
"0ahhfxM8o%>,;>qhg678tgg8qq1<q0>,55iu>>7#4sjsdskAk8ttr6cr1;&O:7aacmmrw0w=:ijsgigl9645wq<5<<-*=5rcrht=4ggr4rs6456qq55<=@&;7eewa5;1",
"1usdfBz8+*,,-<7tgq6qqtr557>;13>>7587#>6#4sjsddkAfygtgwrr0<*o:uccgbVqr6q=:ysiiiuus947gsqe<2;-=7rhgbw==rhw7scq4577=;-*+O*15qeaa7;<",
"0ujfzzt4+=;&*>7tr608w88545;;5<;17wgu6gj85wssffkAiyy5rtcr5r&O:unvrbbqgaww1isj4syuts6wj75<<;=;=4rccgr#4gMw48rw54wqq*->>*&e0eje7&10",
"eakkfzz4 &,*;;=4w546wwrw;4;;51>55wiw7us7skMkNNBGiysyhrcr4q=X:qbmgbc0vjgu5igjujjgst68r5<;--===4wcjsw+7gbr44rt76ssg150<*O577ae0*1q",
"qajkzzf4o,2,5;=4t5=4wtrr55;;01<057i716i66tssfkkAs4isgrcr;q*O:7vbgca5vgj87aglykkkdd6sg7<;<;*=*5wgggt#5shq4wggwwawr;15>+O115a0q-5q",
"7qjfhfd4*<2,<546r645wggg55;5e0>75qi7=56>6wsidjkBf588rqgc;qOO,3cjrrgqgai55yjlujjjssqsc6<<5-;**5wggrw#6rbqwgbbwqw5;*17,*@q<1aeq>10",
"<0ssyft=@,,%,<58g6=4wsrr5517w0<17wi7>76#4wssddkBs6uyi5gc50OO=8aq78grgug51ujnyjsy994tg5>>2<;*=4qrtrw=6gbs6tbbrwswq5aw1*+011aqu<51",
"<18s9ft#o:,%<148r6456wq855<5q1>57rgi788=489wsdfBsyjsjqga;5OO5que55grgajq4yjmsgist94tc<,<<<*$+=5qwtq=wjVb7rbbstgar7aa5=&707aea101",
"1qis9ft4o:%*2778q045tw55;;-*1<>07ujj8as58ghhkzNAjyljjrjr;5$+;qgcq5rrgalu7yglugagd94rg<><q1;O+57wwrr4tgVkwrbhrtgs7<e0<-&1q5aea0q0",
"7ejffzf4+*%%-17ww66wrq754=+O->>e5ujjsjj87sdjkkNAlklsirgs&5&&;5cmr4w8uaj77uulysyjt84rs=*;re>@+<qwtts6sscrwtbbsgbg71e0>-+>q3ueg0wq",
"7wgbhcr4X*5<:#4yk84dk77=>#+@*@*<77aa77457ssgkiwZsslsjwja5<+@1eecrrhrthw5#6skfisuu5>7aq<1aq>**1uwsgsiusbVjkbg8ysar7wq>-+>1<aag1uq",
"48rcccr&+&;>>5yszt6znii5<=@@*&*<**ue11547rrsdu8Nyygyswaj5>O@<0qahtg55s64#7jnsyy785>1q717gu>&*1qujfjsidnnjNns78yyq5q0<>*51*qqp1q7",
"44wtccr&&&;<7uigkstNVsji5=@*-*-,-*au0e7qwswtksiVyslgj8gj>=O@50<qgrg75t74#7kniyyy51#>551evu>@*1wabkgw8sdsifki8wiiu5q7>>+15*7qq<q7",
"=>wtccr;+&;5wsiiktsNnsja7==;>*,<1<jaquqwwgrsVljZslAnkijj=+O&15<0rthqqs54#6nny8681>:>5>1qvu1*>qaabji868i87ssy8isar1q1>;@17*11u1u0",
"#48sccc;O&5wwiw8dssBzsju7>*>>*,11>au14y45u8snbjNysZlbsjj=++@1<>qqwgwwg65#yxVy4yu<<>>1>-1aq,:1euwgdw66isiskjw68y87=>>>1:77*<1q>07",
">4ujgcc;O=6raiuiddsNNhba7>;1<,-1::q5#1>1>w8ybkgnyjZlkiji=+@<e<-qwwj66s65>8nVy1yy>1>><>@@7<*@>qw7ar877isjjjj648877=<>>>-7q,77q>q0",
"#5sjrcr4&&0ragsidsfBVkna7;=>1;;1,>y:O>>>4isifsfNslZsjwsw=;5wa<-0wtjrwjw71ylNsyyi77>*1>*@1<@@;771ssi678wsigs74iiir<5<>>&<u1e7q>qq",
"#5jbccc5X&4wigjjsysNVnNg7=;><;;1>>7:o:>#>si8iyiZyslyswgi@<qgc5*5qsbjgj645ynnyyiguq1-77>=0>#+,7q>bnki668sist77ygsa51<><,7q<uqq:17",
">yjgugc1&&4grcjjjdfNnnns54<<<>20:1u1:u>14y84y4ylyyfuysbi+77qa0*<r5rw6gr4>snkyyyyje57u7->71&O>111bkw778d88i86ikf7q>><1>>1w>1>1;qq",
"#5agaga3X*5g0trti6sfjjgu4;<51><11uju1yuyuyyyy41y41flljmi@55qge<q88tw7gt64wknsyyska70a7*>71&@>715jbi688jw8888sjs77>>75>,>1*710171",
":4gsrgc1O;0h5ww8y8dfjkju;=5q3<<<1uluuyyj4ylllyuy#4xZmlmg;75qae1rr8gw7gw56wbNksgjna71u0*:q1*O=>>:wj7667i68788js875>1qq1>>1>07qqe>",
">6ssrga2O;5r5r66ddkVVNmj=;550<<21ulu>uyy4lZNZljlyyxllgng<w00aq;q86gw6js66wkVlkjjna11q1#*77#O:5>:wi4#@#87767sji67515eq<*,5<077qu7",
"45sgrrg0+*;w7ji7ddnASANj=;>11<<3uflu1uuuyZFZljflfsnksyba585qaq;106gw8gg888kZNkflba<<71*><1*+1uuqjj6>##ys877sdw77q<5q01=>1<1q1qq1",
"47tgwrr0+&*w7lg8dsxASZma=*>>>,-11yZu:yuffZFZlffljynkgybi=71qcw2q08hw8cstiikZVgsjca1<q<*>1q,@1wq5kNi5#4sds68ssy880<<77>>>11qvaa7<",
"45rr0rq5+==q7vg8sskBNNbi===>>-<<1uly4yuyyllZllfZjynljjnu=5;1ae0r6qcw8hgw8ifZly8igu1<5>&>1q>O*5;+ibs84>sss878888u1><7q1->75emja50",
"44tr060;+;>71js8y8dkkbj6@@->>;-<uuluyyssyflZFllZjyblllmi=>*;we1aqwbt8rr88ijVk4>yau115*+*7q,o=1>@7jgs66iwii7467w6<><0q>=;w11nae1q",
"57wgc00;&5400tt4s68jjiui>#:51=*>#ii7ii6i8fnVZnlNyilflama51>>000w8wbgqgtwrhgSbt5bgq>,>*+*11,,<e<o8nw7>78u8stwsds7>==5q05*45rMr50w",
"15rgt054&060rtg4677sdjag7>175;*:5kbii6577gfnNjifysljlyna54>>051e5qcgwcsw6rrVbr6cva1>1,@,51,*,3,+1b775888sgs6sfd74=;4065=;4wrw500",
"55qrt000&650isg46uwsjbbj74>771**5bbrw75t5idbZlfjyyksjyju55>>052q56hswhgw6ssZMs4wie>:>*+&3<,%,1<**jq87u88ijs6sNk64;45qw6;5*5w6060",
"57rw0006X=&6wid46jfssnna>=;151>;=gj6w66s8sgnAnllyyyssuju5>,,052q4qbsqgsqqrgVNr4551*#>:@@1>*%,<,*>bwu8i688jd58Nxt6557wr054&4rr060",
"7qwwq000+>>ugsj88jjwikjw:#=1511>4gsqw85wjjglZlykyyyyg8li=>*;515q56ct6sr66rjbVw45=5=<55>-<>--,<,&>j787w78qhh66kk85;4506054&5rtrr5",
"0wrwwrr0*54igjjyijj8invw>4151>>>5jg6wwqtljslnkyksyjfkubg==@=51<e0wbr6rq756gjbw8rqw55qq>-;---<>-%:j554778skk68sd655;500654=5cctr5",
"5qrwwww0=<>7sggyjkksdbju77qq<=**4hgqwtwkjjjnZljlksfklija==+*<5<q6whw4tw5qqjtc6wgagq57q>>1>=;;;-&@j554776skf88yy64550qr6q4*6cctw5",
"58ww0r00&=:uiygyjkjsajj658uq<*@*4bbwwwwhnnlZZlflkggjk8ju==+=1<2w8qgw4ww7tskrg48gvgr57e070>;--;;*<jw87i47gjs9yfs644556q00;;5ccr05",
"4rr0w05c==;4wbkwsnkw6niiw75<151:5jswsisVnjkVBgslysZljygy=>@=002q5whs5gww66rgtwgggg554r45;0;;00*&>ww558u7dfsssyd6455505554=0tct6r",
"4ww5r00c&&=46gj7sNki8niu755<<1>*5grwrwiknjjVAlysfsljjuji<>*>q0<qqtcg5gqtw0rhgrggsc505q;5500;2;;&17y54w87ijssfss65;5505554*5rcr55",
"4506w00r=&457gfywkbswbwi551<><>=6gw6i66sjbjnJl6sfyy>y1u55>=:075qqgcd6kwt55wgggcggbrq5w50w5;;;0;&4uu547i8rbfhsys64;05w6654&4rcr06",
"4506rw00==44ujjyibng8k8a>8q515>;7stwi5=8skjVKl4sZyyyyyi545;-15206rgrqhwr448gghksrc885r4;00;;00;&5ii5>6i8sNbks8y544560r005==rcrq0",
"000ccrrq@*>58sjysnbg6kuj57u7<1;=5ssrw4#8inlZKl>yZklkkys7;5=*<<<<rwrt7gww66rbcMMrhc500c5=55&;0q<+5sg7>7s8sNMht8d65550rww60=;qhrw8",
"04rccrr6==557jksskfi7j8s>7uu11=;=sgsw>#sfnmZGlyylsksj5w5=5;+<1<0rstw5g4646gMMMctrt;50t4*5;;;2q<*5aj7>7iiqkkstsh85560wwr0w4=qrtqq",
"5=wcr8q5#=47ujlgsjsi8j7u5qaw5>=-4rrgs4>ilblDFlyyNsjfj6i8>5=+<525srww5t44+4rccccttc;60r5;4;;;-0;*5sjq>7ys6kkstss40450rrrtr4;6rwqr",
"04rtq0q5++:1ugly8ssw7j>85uga71>;=6qts4>anjjFFlsyNyiigqie>5;@<056tw654w=;=5hbctr6rt506r4455=*;;<-<igq>58i7khjs89#00456wwrr54trwwr",
"550ct500&4#*0tcr6ssyyu58wrae57;>4775675rknNAZg7ykgjjju1u***,<55&==#644yyuyjngyu17qq0au5<*>;*:=>1rcc0044wwcbrwtt44040aabawq5whg6s",
"540ccwrt+&&4wcbs8igyaf7aqqw5<1**;qrtq=4wusjnnu>ylsjjju332,**;>4454>7y1jjyulnjuy50e50ew11;5>-;>>qrMMr55464wr6405&0050aace775wgr7w",
"550Mc6rt&=*=6cctsisygbyu<5r<<0>*=wgr7=#7uugjna7ikyiiuu1uu<@%@==5ii8yuyjjyylmgisiaa0<eq5010<--*>ewcc64=&+4rtq588;50;5wrr5==58r645",
"550cr4rr4;4=6crrssfysf7755a55a2-4rcrq=#7sajnVjyjsyyuu31up,O+@+=wjjiiy1ijiulnyygsaaq5qq15<75;*@*56t0&&44=5wr5505=;0&5q7r;;546t545",
"550gw50r4===qgcisssysj77qqr5qa0;6rgrq==8juinZj8jfy1uuuuu3,O%=&5tjngjy1uyyujniyjsiuq1q0<>1q5<;@@>*05&0ggr5rc05w6;;4&;<5w588qtgwqw",
"5;4gr6rr&==4qvvgsgfyjkwu84q5qa-*0rtrw5;qgwwnZg7ily44u33e<*&*==qsglgksyiiiujjuusiqe51q1**>511<>-<*tr6cMcw5tctrssq;;=;<5tqrwqtbs8w",
"045gcttr====qcbggjkgjkisq555eq*&;rcgq4=wgwumZjqily58ee11>-=&=4rrasijgyjjiyslyuiieq<>71*,*-**151q5cMwrht56rctqr6;;0;<<<rqq8qrbh6q",
"q05ccrrt=555rggrjknfjjwaq;17eq&&=rbcr;=8guamFbwss4>5uu11-;*&=5rgisusgyjjs7sjyusuwe3>51><O&O+<0qr4bM68gcrtVCbsji>&6501>rqq08gVc54",
"r5wtc0gt5440wagaslnjjku7w>>qq>$$=qrrr0;6t6rSSw76yy>1i11,1*O*;5tMusanlijjy1ujy7ujae**77>*->1qq;1ercb5tgr4aVZgsbg>=1q0qq55504ccrw6",
"w5rcc6gr;*&5rcawfnZjjkii75>5q<*&&6trt;=;crrSM55wyy:4p1112,+%=5gbjislljig61yjsyysaw>*<<*&*>57<17q6cb8rgg4gNZgrcd>*1q7;;5q45;MMg86",
"85rbc0rw4&*6gbgrsllyigyyq71105;&;rrrr0=;t06Mc44wyy#>u:113%O%45rbaualljig4>yji4uuqq,*<,*@-57-;<55wbMwstt4dVni6jw>=<q<=;qs*54MMhw8",
"55rcb4r5&&=0scbgykly8i5u8q<<<0;&0rct66==rrrcr=4ry4#>u,,13,+*;qsviyujnjyi41ysy14515**<<,>>1>*+;11tcM8tww4snkw8s6*=<5;;<rs=55VVbrq",
"55rbb4w5++*5wrggyjnsis5yrq5<<5;$;rrr0;&=rttMg;5wy4#uyu3uu,+%1wgcauyjlbuiy4usy54y3q<,<<;11;*&@*<eijj6r786sbbiyi6+=5<;;qrr;q0Vmcww",
"05rbb0r5+=550wrhyklfgs1885><<<*+;0ct0;&=rcrcr;45y4#ubuupu<+*5ugci>yjlnuyuuyjy7iacp1<<>-,<*O@**5gjss486wisnVsii6#=51><riq585Vbgww",
"q5wcmqr0+&66tccbjklgsy11q4=;1;*&=rrr0&&50rrr0&56jy#ymjp33,*%5acgy>sjlb6yu4ajsyjjgg5;<1>>7>*@*>egjw8#i6ssgNNj886><00<;wrw;55Mbtww",
"6;5gbqc6+#40rtgckkljjs:45&&;5-+*&0r05&&4rcwtw5wrNs:smvpup,++5sgsy:sjjl4uyyalaysiaa>-551q00<++5rijt8=i8sisnVs675=<we<=rtr=55Mbgq6",
"847jmqc5++#5u4yu8jkkjiuau5>0<@;*;0;54++4qquj1jblxx>aSuaua<*>57gjsuyjbsii86dngisjba<;1>;560045wssiy4>8dsggbMhqww4;00;;qaq==5gcwrt",
"y76bbqc5+@*7yuysikbkfsiga7<w5@<;45504&+=50wvujmlNB4fSieea>@>>qgjjyykng8ii8sksijksq-*<;*=rq6558y8iw4>8swwwtbc5554405;<wrq575sg6rj",
"iyrmMqc5*+:8uuyljnnkjsufi71w7-1<0r065;#&==qkujnjBx6jAguwp,@*>usjjislbswi867i77ij71**<;+&;5068isfis768iw6wrNmw45555;&;ww7qq6ggqsg",
"aygMM0c5&##558snfbbjjw7a841u7*1>ggtr0;+&=5ujujbjNx6jVswea,@#:7ajjialks66445844is55@@1<=&=;40wjlNfki58sri50cc0=4;;0;&=rr56qrMVssh",
"yyilc4r*+#=418ilgNbjs8777>>a7*11rcccq4=555qh1jljNf6fnauwa,@*=7iijgjkki88446867ss4;**;04;4;40wtjknnd68digt6rt045540<**0r755qNVsgc",
"yyibc=g5&&=77ysljbbkj85w751u7*77rcccr54rwrwg>sljky8fnaweu<@*#7iijfjkks9w76ii48sj5<*&;0554*406wsdkns458sgctrtrrr0;05**5qq554bbwgc",
"sysmc4c5&+&4u8ifgbbfs85875>u1*0qrcctr55asiwg>ijfz88jjgqqq,:*:8sujjjkjsww75ww5wjj5<=&50;&&&46trthsks=48wstrw05wt55q;**5q74;=jh6tb",
"uuyjg=r6++&47yyiikbjg85875<u1*70rctrw5<qgiug>iljx8ykja3q7*#:>ujaaigggrqw86ww7wjj57;*;0*&&&4wctgswjw=46wrctr60tt080<&*0q54;=gb5rg",
"yyyjuab<+&==4wyy8fnkswwi87171>uqwrggr55qu8ss14jlf6ykbj7q7>%#:7bjtr6wrt65>55w48bcq>*=>70&+=7wgssgkNj568ssbswrtcr05q>-=r;55;46rrhM",
"jyilagme#&#=68yiijbbi8w877;71>au0wgcr456a7ii:yjlf8skbj7q0<@->7jjw06w6604#57t88cg>*@;-15&&=7iigsfbZk758ws7558wr545e>;=q55==5wtrgc",
"yyyjrgmq++@>5wiikbNbjsw74>*555ap6wrbi55wsuyi4ysfxyfkbj101>O@=7jaw660rw04+=7rwwhr<*=>;<<=;5qwigjkmAb645rstrcbbcr5<e>>*q47&=5ttwtg",
"y14yqab1++==56yybnNbdsu74=*110cjrwtrw57iyuji4ykjxysfbj35<,O@#8narrwrct05#5wggrhrg7<<<15=5768iykknBk744qstgmbctw0;q;;&5=5445wq7rs",
"y68jwgm0++=44468fbkjiw7>4:#11uvcs78as77uuyll1yfff9sfbb011<&*1aVbrhtcctr54rrmchVmMq;>400;5068qwhnknd4#6wj8rcgrq65=q>>*5;5=46q65qg",
"y5wjgmSr=@#>414ygkbjw675>=@113vgu5yjbw47yyllyyjsd8sjbb011<O*5jSvrtrrttq54wgbrgVmm7&-;40&40806thnjj8#=4wgwgtwww05;r15;q55&5wrw8wg",
"448kcMSr>*#>517ssbnksi87>*@11uva77umlu464yjj6slis8sjbb0>>,O+>sVcwrrtrr6;&6rh65ccc;&&;;;;55qw6rcMfj8>478swrr60w65<q<<;r===8sgq6wg",
"uyrbbbS75:#:>>ikijnki88u>#@17evaq7anj5>yuuyyyjxyd6dgnb1-1>@@>gVg6rtqtr04&wrg55ccr5*5;04=;50wqtcMnbw>468ighgw6q05;7;<4q&&rgcs66wg",
"77anhzMw4&-2*<ggyjffu>uu>@+7eqvauscvr68twssrgbks49twkM5&0;O@qbmr8ci77sj>#ajbu5ZmeO;;<&5&506rwwMmkly#>57ucMgrrq;q<;**,*:qugvg17aj",
"11ikthMwq*-,->sgyjjjy4uu5@@70qva5qsgr555wrsthMks9ss6rg5<1-&&rMbggMj8was:#sgnu1Nma&*;<-q;500trwMClly##>5yrrw6wq4<1<;-<<1waabju7sj",
"<1idthC55*--&;agyjjksygjw=*730ca=5avg8458wtthMht6dkwwr<<1,&*5rr8wbr78aj>@uan85nbp&>-5;q=&5=665hclly#>4575q00rr51001=7eqqagbg77gj",
"<7is9bC4<$--&=rtyfkllsjla1*qq3vc*5cmcq5588wtshs88hANbb0;;,@+=8q7<a558aj5#7ajw4jac-<;;=0*506w00cMjjy>>487=506wwq<7q1>3auquavg7uai",
"20wdszC4,%,2-*6iyjslgujag<=750vp*qcmbr56wq86tsst6th6wr;;-@OO;qar>84>5ug5:7ijiqirr;;00&5&0w6r00tcjju1>778+=57755;>3<,1uwqaajs77ii",
"37rhszA4<$,2-@6wsfskgyuia=+1<1aa&5cmcr55tw88tjst66846q**-&OO;wsr#7:#>7i>47ski6irr&;;;;5&000064rcjjy>>445=6wr555>@,**0eqwagja77iu",
"01qfdzC71$-2*&6sjjjljyajr=+<>>a0=0tbgq48sr8tjhjstdbgbv51>*O*5qq6>7>>1yg544jj77ubr;;;;;5&0ttrt0rMlky##>>7w7sjwwu>@**>q07upigi57ii",
"q<7kfkB60%-2*+7jljfljyaji=@5>-r358cbcrwtsttjhhhsshMsgg17<*%>rjgrjku7yij4:>aa4>wmc;;;;&4+4r0tr0ccjjuO@>7wi7ijiaa>-*>1011euuay17ii",
"<<6kzhC51$22-*<jllslsuibw;>>**3w0qggsrwtrhsgMktg99dkgr0e<*&=7qrcjjaq7uy77#5u71>gr52;0&5;&400ttrMjmi@@>78yuujljy1-@-,u-1qq18q55yu",
"3<6bhhN4>O22-*=wllsjyugvi5>>&O&;5qwrrrwwwstsNk8866tjgqqw2*+=5qavjjj7587u8>uiw55kr;5;0;5;*40w0r0cvbu#@477458ajjy1:@;,i;17uui84587",
"<;6htfM4>%22&*#8llsklygja5;>**;0555wrt87qr9sMM8466wgt5;53-+=4qabaja75577u7sji77nr;2;0;5=&;www60Mgvu++>>5>57ijju55:><a>>qqqai>>77",
"<;tfthM43*2,&&4sfZsjlsglr=;1<<qq06rr854;qttdNMt4t9tsr=*;2*&;50avjsu8877875jju77vr;0;0;5;=4wwrtwccc1Oo#>417isjju55<>3p<<q10au:#8q",
"<;gf6sd43%2,-;7gfZgfnsgjr4;>=*;;5qrw5==4rtssMCNw96tkgq<71<;qrtgbjjw78au>55sg787nr;2;0;5;&4w6rr0cbbq++=5wuisgjfy551;0u01u5usi>#57",
"--gd696#*$22;<5tsZssniwgw=*;;;;;50rr5;46sghjbAAh96tkbwqe<-<wrsgbbju7aja544ai777vr50;5;5=&;w0rt6cmc5+#=5iyasasiy>11,qe3;7upja>#45",
",&gd6d9@*O22-159yZsij86iq=@10505;6tw756rsskjhCDh96wbbq<5<;<errgbvguwajjy77siu87vr20;;;;*&=twrr0crc5&=55q7iyuuy8>11*711*17qsi>#55",
"1*jksCk>;%2<-57t4Ni8d5>ww=@<005550wrrq6wtrkhsCAs645gc5;<2-1wrrcbgsuusjjaaujaiialg;;;;*;=40rtt65thr7;565q57uyyyu4<1&0<<o>><7y>:58",
"eeqbsCh=%,,2,::6sjjua71ug##7777=;06cc066wrbhMAVf8w6rswr0q-*qaagMji8issss5isj48sga<>1<&-*-1>@#wgscCg744688757wtr671>11,@:>1caaqgg",
"-;1s8zs=O,,,,1uyyjgugi5yg#@4>54&;60tw5556rhdbCVkstqgcrcq3<>qardBjdiwisiw6wsj48isv1-1<,,**55@*wddgVt44;wq766qwr7471*;7>@:=1gwq<rq",
"-2qj8ht#%%%,3u76ujgyjsuua>#>*47&400rq4547thhhVCMdgqsaeq25>;575wbfji8wss848sj488sb<&<2<,%>pe;>jkfcbq=44wwqtr6665>1<@,1>@*10vaq5rw",
"qqgvskf5%%%:1355yks1ii86i>:>*58=506w6;4;5rhbskAktt6ga03,1-*;548dbkg88sa86isk4wwwg;+,<,-*3gg15fNdhb7=44wwwsw755757<#:1:+*7wngr8gg",
"2;wghMMw%,,,>>58yjy@4y155#&=;8r*506r544=4rkbtgAktsivc00<0;*<6wgknbj68ss86isj6siiw=#>>-,>ega15dksbb6=546q4rtq5767q1>>1*O:0qbr84rg",
"0;trhfb7+,,,,:8yjg>#yyuy6+=76rr;5w0w05546ghMttDhwsibb0031-*<wgkNnkgsssi848ij5sssw>>1>*1eeaa75jkdmV65546w5sgswgw5q1>11,@*0rbt0*wq",
"0;bbkdh4+%,2><7yjs1yjjuyr#=qaaw=4060008;7sdMtsGsw97jg100<-=;8rhbjssjfi66478s5sssi1<7>-1euaau8fzkmm655406rgbgsgs5q1,1u1**5rbr5=wq",
"2;MNNhk7O,,<,>46sy4ylj>ut+&rar5+&55w06644rgNtsHgt80jc7ep<;<<q6ths8ikni44#47i4isss511>*1qeuqwwdkbMbw65;6qskg65ww7u1@1au>*;7br5=rw",
"02bChth4X&;&;05skfsymVunbqeqqq-**5860665wrhNssVhs6wga001-;*;74wbbw6sjji4#4888djjw>77>>*<0qaujydfbb6=586cwggtwww57>,1uq1<<wgbq;rr",
"25bChhh6X&4;;65dlfsyZAjmg5qqqr<;;5qq0005wskNtsCkh6wgr001;-;>wqtMkswgjs86@489ywsg8=54>:-<qua8ffddMc54658ctcbs8w67u>:7u7>*<agvq=rt",
"05bVhhh6$&;-<r6hxffsBZsnq=50qq2-;5q800w8shMM88CMj8wsw03<*->1rtsMksgka876#>8jjwwfd477>1>7qaa6jkxhMh5=558grbbgww87u<,1e1;#<ucv7=rw",
";0cVhhM6X&0;qrwzNfysnZys5&<02r<-&5876qwtsbbMwtMkd8warq3<&-;7sisbjsjjs6744>8kj88kj787<5117jf4fkBzMr44458gtgcgwww5q<*1u7>*<ugc5=ww",
";0MMchM6X;20erthBfffBBiu5*00qe2<;55;=768gbbNjskhs6wiuw0>->>egitfjsskjs84646jg78bk687>5>>7jn5szBBbw4*45rdrggwtrw5q::>uq<*;rgc5=8q",
";0cMtMM=X&20rr6hBysfNAdq5*1<20,-;545=;45gVNVNhkgd66irae;,>>qgiwhkwijfji447ijj6snb8s7>51>8vn79dBNMw4;=6trqssw8ww7q,@1uq1=<rgg5=ww",
";0cMtMM=&$000w6zN98fNBs7=@>--2-$;qwq7555rVVVNdjdgwwiwwq->>;5grtjjwskkji46igkjwgNlys657<>7sh4dfMBM844=5tt8ghr67q67::1ue1->wcc0=rw",
";0MMhCC4&&;;0wwzByyfNZi4>*1-*3<*;qsgrtwq6MCMk8sdj6wwreq---*5rw6jfwjnkjs77wjkd8jMf8i7>71*>7w4dfBCVw44=6rw6gbr446ru,@1aq1>>wgc6;tr",
"77NVhCC;$$227i9xxs8yjVj>@=711w>-:4yyslk78skfy9sktrrtc0;;5&&+>u7fghcbvva5147g7=sMhw8557=@*e0586wkk8>###7fiddi47677>>5rr6=&wccr5rr",
"17nBfCC4X$227w9NBw6sbNnq#:5>1e>*#1isijj7klfy8yfftt0606;;5*45wsusdgtrjju>>>7jw4dbk86qqq--0bjqgcMANs4>447s8ii8iiy67>;<6w0*4rVcg4rr",
"11bNfCM4O$,20w8xB84skNbg>#5>5u1:#ugiuifyBBkyyflfct60060;;&;5qs7itttwjja515ybt0dbk67wrq&-3mc1wbMABj464448568ssdi7r7;46r54=rbtt=tw",
":ukbdMh4$-2>176kV74sbjgs>>757w>>:1sguya8nVndslfit60t006;5&==7w786wwtjjs717ukt6hbk447wq&;,pe>qshNNi4>656778iiiii8r7=50r5;&tcrr&rw",
"1yljdfg=O$22176kN56jbgiw*=q110;;#5sgiis5gllffkkfr=5w500;0;05wawirtcbccu576tctwhMh447q<O->e00sihSki4478888iji876854=50w0*=rcrw=rg",
">ujjsdt&X&--188Nk65kVjsr+&7111*@>5ssyi84slkfssfkg456=5r;5=0rgbistMMNMci7qrqcr6hcs5675>$--317gidGj84478ssiffi7788q445wr6*4wgtw;gr",
"1ujfdt8;O$--5w9BN77jbsrr=+>>5q*+>7ss87y8fkklfsflj>5w50r04&5wgvttrtMMbbr77q6t60ctw6rwq<$*&<>;q8sAs84446ia8dgw6688wq45wr644qrww5rw",
"4ujjttw;O$,<5w8NM67gsrq87@*>0q=@>8gi4>8ilkklkyyfj4wk0wr;;&45rvsdtccMbcq=770r66ht68fir0*--q1&;qtNj87447is68iw8ws8rq=;060;qrrwr5tw",
"::ufyy4:&$-2qqszb55cMctr54qwaa-@7iji54yigjkBx8fkd78u7wg24;;50wrgbbhgg7:>1778458ttsr6w0<,*<5;;6hHks76>4iiskkr68wsr04;4;440tgqw4rw",
":1uyyy4#&$-20qsNM85tbrrw5=57qe;*7ajs7yssfkfNf8fli87iwuc0;;;40wtccbggjy155quy57wt8st7wq>--5<;44gDkw7446ssjbbs6wwsr00044;45cr8w;ww",
"1ufyyfs:O$2255jAM66cc060;*;;3q;;uujj8uiifjsfs4sls8>irrc55;&40wttMMgsjs777aai6ttt6sw7e7;--1;;44tDj8764wjdbNMg88ss60440;*45rcrr=05",
"1yfyyBxy$$-,>5sCh55rc60r5=;=<q;>7uss84yisjdxfydlj85aqrc;44*40ttcMMjgjjuu7ajawrhhtsw7qq<>;<5;55tAkw6#>ysibVNs778iw0;44;&;8ccwr&55",
":yjysAA6O$-->7dNr;4rtwrt8;000q-;55ag88yyjkfZNsfxhq6rwqc;4;&&5ahgcMtrsa77qgbrwrtMshr6q03<--<557gDVd5#>8dibMNt5466t64;4*=4qccrt&45",
"1ijyfAA6O$$-<6hMd40tc6wrq;00qe;=55ify8uiskslzskxs65w8qc5;;=&5sgttct6ww515gbctttchks5q033*-;<84dDAk6>48j8bVVg66wwr0;;==4=wgbrg=45",
"1ujszDAqO$$*<wdbc06ccrwwq50;0e;=54yjiuisfsylf8fltq5q00r5;;&=0sctrttw87>1<abtttMchkj8rq3<->;>75iAAj844gj8bNSt446065;===*=5tccc;4;",
":udyzDV7X$--1qdMM06ccrrr050;<0;;>>ujiyssyssxnsfks86w;4r0*;==qgt6wctww777>aMrrthtjkgwrq>-<>->5>8ZNj647jf8cNVt446605==4=&&5cbbM;4;"
};
