/* XPM */
static char *_551103728424[] = {
/* columns rows colors chars-per-pixel */
"128 128 13 1 ",
"  c gray34",
". c #676767",
"X c gray45",
"o c gray50",
"O c gray56",
"+ c #9B9B9B",
"@ c #ABABAB",
"# c #B7B7B7",
"$ c #BBBBBB",
"% c #C3C3C3",
"& c LightGray",
"* c #DFDFDF",
"= c #EFEFEF",
/* pixels */
"%#####@##%######%%%%#%%#%#%###%##%%%%#%%#%#%###%#%###%%%%#%%#@###########%######%%%%#%%#%#%###%##%%%%#%%#%#%###%#%###%%%%#%%#@+O",
"#####%*=******&&*%&*&*&**&*&**&&*&&*&&&*&&&*&*%&&*&&&*&&&*&&&#@@#####%*=******&&*%&*&*&**&*&**&&*&&*&&&*&&&*&*%&&*&&&*&&&*&&&#@+",
"@@@@@*=%&%%%@@#@%@@%#%#%%#%@%%##%##%@@@%##@%@%@##%#@#%#@#%@@#$#@@@@@@*=%&%%%@@#@%@@%#%#%%#%@%%##%##%@@@%##@%@%@##%#@#%#@#%@@#$#@",
"O++@#*%#%%%#@#@@#%%@#@@#@%#%#@@@#@%@##@%%%%#@@%@#@%%@%#%@####@$@O++@#*%#%%%#@#@@#%%@#@@#@%#%#@@@#@%@##@%%%%#@@%@#@%%@%#%@####@$@",
"oO+@%&@%##@%##%##@@%##%%@##@@@@%#@@#@#@%###@@#@##@#@###@%@@#@@%@oO+@%&@%##@%##%##@@%##%%@##@@@@%#@@#@#@%###@@#@##@#@###@%@@#@@%@",
"XoO+#%%@@#%@#@#@####%@@@@#@@#%#@+#%@%@#%@#@@###@##@@@%@+%@#@##%+XoO+#%%@@#%@#@#@####%@@@@#@@#%#@+#%@%@#%@#@@###@##@@@%@+%@#@##%+",
"XoO+#*###@#%+@##%###%@@#+@##@%@@#@%%##%#%@%##@@@@%@@#@#@%#@###$+XoO+#*###@#%+@##%###%@@#+@##@%@@#@%%##%#%@%##@@@@%@@#@#@%#@###$+",
"XoO+#&##@@#%#@@@@@@##@%@%@@@#%%@@%@#@###@@#@@@#@#@@@##@###+#@#%@XoO+#&##@@#%#@@@@@@##@%@%@@@#%%@@%@#@###@@#@@@#@#@@@##@###+#@#%@",
"XoO+#%###+#@##+#@+#@#+#@+@###@+#@##@#+#@##@@#@#@#@#@%#@#+#@@#+$@XoO+#%###+#@##+#@+#@#+#@+@###@+#@##@#+#@##@@#@#@#@#@%#@#+#@@#+$@",
"XoO+#%#+@#+@+@@+#@@@+@#+@@@+@@@#+@#%@@+#+@##@#@#@#@@@@##@@@@+@$+XoO+#%#+@#+@+@@+#@@@+@#+@@@+@@@#+@#%@@+#+@##@#@#@#@@@@##@@@@+@$+",
"XoO+#%@@#+@+@@+@#+@@###@#@+#@+++#+@@#@@#@#@+@@%@#@@%@#@@@##@@+%+XoO+#%@@#+@+@@+@#+@@###@#@+#@+++#+@@#@@#@#@+@@%@#@@%@#@@@##@@+%+",
"XoO+#@@@+@@@+@#+@+#+@+@@#@@@++@@+@+@#+#@#@#@@+#%@#@@%#@%+%@@#+%+XoO+#@@@+@@@+@#+@+#+@+@@#@@@++@@+@+@#+#@#@#@@+#%@#@@%#@%+%@@$+%+",
"XoO+#@#+@++@@+#O+@+@@#@@@@##O@+++@#@+@@+@##@+@#@%#@%@+%@#@+@++$+XoO+#@#+@++@@+#O+@+@@#@@@@##O@+++@#@+@@+@##@+@#@%#@%@+%@#@+@++$+",
"XoO+#@@@+@@O+@O@O+@+@@+%O@#+@O+@+@+++@+@@+##@@@#+@#+@%@+@+@+#@%OXoO+#@@@+@@O+@O@O+@+@@+%O@#+@O+@+@+++@+@@+##@@@#+@#+@%@+@+@+#@%O",
"XoO+####++#@@++#++++O@@@@+@+O@+O++@+O@@#@@+@+@#+@+@++@+@+@+++@$+XoO+####++#@@++#++++O@@@@+@+O@+O++@+O@@#@@+@+@#+@+@++@+@+@+++@$+",
"XoO+#%@@O@@@+OO+@O@@+@O%++@++@+++@++@O@+@+@+@#+@+#+@+@@+@+@OO+$@XoO+#%@@O@@@+OO+@O@@+@O%++@++@+++@++@O@+@+@+@#+@+#+@+@@+@+@OO+$@",
"XoO+#@+O@@O+O++@@+OO++++++@#+@@O+++++@O+@++@++#+@O@O+++@O@O+@@$+XoO+#@+O@@O+O++@@+OO++++++@#+@@O+++++@O+@++@++#+@O@O+++@O@O+@@$+",
"XoO+#@@@+O@O+O@@+++O+@@OO+@O+#@+O@+#@+@O+@+++++OO++@O+@+@+++@O$OXoO+#@@@+O@O+O@@+++O+@@OO+@O+#@+O@+#@+@O+@+++++OO++@O+@+@+++@O$O",
"XoO+#@+OO@OO+OO+@+O#@O@@++O+O@O@+O@+O@OO++OO+OO++O++++@++OO++@@OXoO+#@+OO@OO+OO+@+O#@O@@++O+O@O@+O@+O@OO++OO+OO++O++++@++OO++@@O",
"XoO+#@+O+O++@+O+OO++OOO@OO+O@+@O+@O@OOO+OO@OO+@OOOO@+O+O+O+OO@@OXoO+#@+O+O++@+O+OO++OOO@OO+O@+@O+@O@OOO+OO@OO+@OOOO@+O+O+O+OO@@O",
"XoO+#@@++++O@++O+OOO++O++O+@+O+O+@OO+O++@+++@O@O++OO+O+O+O++OO#OXoO+#@@++++O@++O+OOO++O++O+@+O+O+@OO+O++@+++@O@O++OO+O+O+O++OO#O",
"XoO+#%++O++@+O+OO++OOO@OO+O@+@O+@O@OOO+OO@OO+@OOOO@+O+O+O+OO++@OXoO+#%++O++@+O+OO++OOO@OO+O@+@O+@O@OOO+OO@OO+@OOOO@+O+O+O+OO++@O",
"XoO+#@@o+OoOOOO+O+++@O+OOOO+OO+O++O++OO++OOOO++OOOO++O++@+OOO+#OXoO+#@@o+OoOOOO+O+++@O+OOOO+OO+O++O++OO++OOOO++OOOO++O++@+OOO+#O",
"XoO+#%OOOoOOooOOOXOO+O+oOOOOO+O+OO+OOO+O+O++O+O+++OOOO@O+OOO+O@OXoO+#%OOOoOOooOOooOO+O+oOOOOO+O+OO+OOO+O+O++O+O+++OOOO@O+OOO+O@O",
"XoO+#%++OOooOOo+o+oo+Oo+o+OOoO+OoOOO+O++OOO++OOOO++O+O+@OOOOOO+OXoO+#%++OOooOOo+o+oo+Oo+o+OOoO+OoOOO+O++OOO++OOOO++O+O+@OOOOOO+O",
"XoO+@#O++ooOoo+oOooOooOoOOoOOoOo+oOoOOO+oOOOoOOoOO+OO+OOO+OoOO+OXoO+@#O++ooOoo+oOooOooOoOOoOOoOo+oOoOOO+oOOOoOOooO+OO+OOO+OoOO+O",
"XoO+@@+ooOoOooOoOooooooOooOooOoOooOoOoOoXXooOoXOXXXOoXoOoOoOOOoOXoO+@@+ooOoOooOoOooooooOooOooOoOooOoOoOoXXooOoXOoXXOoXoOoOoOOOoO",
"XoO++@OoXoXXXXXXXXXXXXXXXXXXXXXXXXXXXX..XXXX.XX..XX.XXXXXXXXXXoXXoO++@OooXXXXXXXXXXXXXXXXXXXXXXXXXXXXXX..XXXX.XX..XX.XXXXXXXoXoX",
"XoO+++oX.......XXXXXXXXXXXXXXXXXXXXXXXXXXXXXXXXXXXXXXXX.........XoO+++oX.......XXXXXXXXXXXXXXXXXXXXXXXXXXXXXXXXXXXXXXXX.........",
"oOO++OoXX.......................................................oOO++OoXX.......................................................",
"OO+++OOoXXXXXXXXXXXXXXXXXXXXXXXXXXXXXXXXXXXXXXXXXXXXXXXXXXXXXXooOO+++OOoXXXXXXXXXXXXXXXXXXXXXXXXXXXXXXXXXXXXXXXXXXXXXXXXXXXXXXXX",
"OOOO+++O+OOOOO++++OO+OOO+O+OoooXXXooOOOOO+++++O++OO++++O++OOOOOO+++++++O++OOOOO+++++OOO+++OOoooXXXooOOOO++OO+++O++O+OO++O++++OOO",
"%%%#%%#%#%###%#%###%%%%#%%#@+OOoooO+@##%#%%#%#%###%#%###%###%##%%%%#%%#%#%###%#%###%%%%#%%#@+OOoooO+@####################$$$####",
"&*&&&*&&&*&*%&&*&&&*&&&*&&&#@++OO++@#%&%%%%%&&&&&&&&&&&&&%&&&&&&&&&&&&&&&&&&%%&&&&&*&&&*&&&#@++OO++@#%&%%%%%&&&&&&&&*=*==***&&&&",
"#%@@@%##@%@%@##%#@#%#@#%@@#$#@+OO+@%*=******&&*%&****&&&%%%&&&&%%&&&%&&&&%%%%$%%%%%%%$%%@@#$#@+OO+@%*=******&&*%&*&*&**&*&**&&*&",
"%@##@%%%%#@@%@#@%%@%#%@####@$@+++@#*=&&%%%@@#@%@@%#%#%%##%###%#@%@##@%%%%#@@%@#@%%@%#%@####@$@+++@#*=&&&&%$$$$%$$%%%%%%%%%%%##%#",
"@#@#@%###@@#@##@#@###@%@@#@@%@+O+@%*&#%%%#@#@@#%%@#@@#@%#@@@@%#@@#@#@%###@@#@##@#@###@%@@#@@%@+O+@%*&%%%%#@#@@#%%@#@@#@%#%#@@@#@",
"%@%@#%@#@@###@##@@@%@+%@#@##%++OO+#&@%##@%##%##@@%##%%@#@@#%#@+#%@%@#%@#@@###@##@@@%@+%@#@##%++OO+#&%%##@%##%##@@%##%%@##@@@@%#@",
"%%##%#%@%##@@@@%@@#@#@%#@###$+OoO+#%%@@#%@#@#@####%@@@@###@%@@#@%%##%#%@%##@@@@%@@#@#@%#@###$+OoO+#%%@@#%@#@#@####%@@@@#@@#%#@+#",
"@#@###@@#@@@#@#@@@##@###+#@#%@OoO+%*###@#%+@##%###%@@#+@@@#%%@@%@#@###@@#@@@#@#@@@##@###+#@#%@OoO+%*###@#%+@##%###%@@#+@##@%@@#@",
"#@#+#@##@@#@#@#@#@%#@#+#@@#+$@OoO+%&##@@#%#@@@@@@##@%@%@###@+#@##@#+#@##@@#@#@#@#@%#@#+#@@#+$@OoO+%&##@@#%#@@@@@@##@%@%@@@#%%@@%",
"#%@@+#+@##@#@#@#@@@@##@@@@+@$+OoO+#%###+#@##+#@+#@#+#@+@@+@@@#+@#%@@+#+@##@#@#@#@@@@##@@@@+@$+OoO+#%###+#@##+#@+#@#+#@+@###@+#@#",
"@@#@@#@#@+@@%@#@@%@#@@@##@@+%+OoO+#%#+@#+@+@@+#@@@+@#+@@+#@+++#+@@#@@#@#@+@@%@#@@%@#@@@##@@+%+OoO+#%#+@#+@+@@+#@@@+@#+@@@+@@@#+@",
"+@#+#@#@#@@+#%@#@@%#@%+%@@#+%+OoO+%%@@#+@+@@+@#+@@###@#@@@++@@+@+@#+#@#@#@@+#%@#@@%#@%+%@@#+%+OoO+%%@@#+@+@@+@#+@@###@#@+#@+++#+",
"#@+@@+@##@+@#@%#@%@+%@#@+@++$+OoO+#@@@+@@@+@#+@+#+@+@@#@##O@+++@#@+@@+@##@+@#@%#@%@+%@#@+@++$+OoO+#@@@+@@@+@#+@+#+@+@@#@@@++@@+@",
"+++@+@@+##@@@#+@#+@%@+@+@+#@%OOoO+%@#+@++@@+#O+@+@@#@@@@#+@O+@+@+++@+@@+##@@@#+@#+@%@+@+@+#@%OOoO+%@#+@++@@+#O+@+@@#@@@@##O@+++@",
"@+O@@#@@+@+@#+@+@++@+@+@+++@$+OoO+#@@@+@@O+@O@O+@+@@+%O@@+O@+O++@+O@@#@@+@+@#+@+@++@+@+@+++@$+OoO+#@@@+@@O+@O@O+@+@@+%O@#+@O+@+@",
"++@O@+@+@+@#+@+#+@+@@+@+@OO+$@ooO+%###++#@@++#++++O@@@@+@++@+++@++@O@+@+@+@#+@+#+@+@@+@+@OO+$@ooO+%###++#@@++#++++O@@@@+@+O@+O++",
"+++@O+@++@++#+@O@O+++@O@O+@@$+ooO+#%@@O@@@+OO+@O@@+@O%++@#+@@O+++++@O+@++@++$+@O@O+++@O@O+@@$+ooO+#%@@O@@@+OO+@O@@+@O%++@++@+++@",
"+#@+@O+@+++++OO++@O+@+@+++@O$OooO+%@+O@@O+O++@@+OO++++++@O+#@+O@+#@+@O+@+++++OO++@O+@+@+++@O$OooO+%@+O@@O+O++@@+OO++++++@#+@@O++",
"@+O@OO++OO+OO++O++++@++OO++@@OooO+%@@@+O@O+O@@+++O+@@OO+O+O@O@+O@+O@OO++OO+OO++O++++@++OO++@@OooO+%@@@+O@O+O@@+++O+@@OO+@O+#@+O@",
"O@OOO+OO@OO+@OOOO@+O+O+O+OO@@OooO+#@+OO@OO+OO+@+O#@O@@+++O@+@O+@O@OOO+OO@OO+@OOOO@+O+O+O+OO@@OooO+#@+OO@OO+OO+@+O#@O@@++O+O@O@+O",
"OO+O++@+++@O@O++OO+O+O+O++OO#OXoO+#@@++++O@++O+OOO++O++O+@+O+O+@OO+O++@+++@O@O++OO+O+O+O++OO#OXoO+#@@++++O@++O+OOO++O++O+@+O+O+@",
"@OOO+OO@OO+@OOOO@+O+O+O+OO++@OooO+#%++O++@+O+OO++OOO@OO+O@+@O+@O@OOO+OO@OO+@OOOO@+O+O+O+OO++@OooO+#%++O++@+O+OO++OOO@OO+O@+@O+@O",
"O++OO++OOOO++OOOO++O++@+OOO+#OXoO+#@@o+OoOOOO+O+++@O+OOOO+OO+O++O++OO++OOOO++OOOO++O++@+OOO+#OXoO+#@@o+OoOOOO+O+++@O+OOOO+OO+O++",
"+OOO+O+O++O+O+++OOOO@O+OOO+O@OooO+#%OOOoOOooOOooOO+O+oOOOOO+O+OO+OOO+O+O++O+O+++OOOO@O+OOO+O@OooO+#%OOOoOOooOOooOO+O+oOOOOO+O+OO",
"OO+O++OOO++OOOO++O+O+@OOOOOO+OooO+#%++OOooOOo+o+oo+Oo+o+OOoO+OoOOO+O++OOO++OOOO++O+O+@OOOOOO+OooO+#%++OOooOOo+o+oo+Oo+o+OOoO+OoO",
"OoOOO+oOOOoOOooO+OO+OOO+OoOO+OooO+@#O++ooOoo+oOooOooOoOOoOOoOo+oOoOOO+oOOOoOOooO+OO+OOO+OoOO+OooO+@#O++ooOoo+oOooOooOoOOoOOoOo+o",
"OoOoOoXXooOoXOoXXOoXoOoOoOOOoOXoO+@@+ooOoOooOoOooooooOooOooOoOooOoOoOoXXooOoXOoXXOoXoOoOoOOOoOXoO+@@+ooOoOooOoOooooooOooOooOoOoo",
"XXXXX..XXXX.XX..XX.XXXXXXXoXoXXoO++@OoXXXXXXXXXXXXXXXXXXXXXXXXXXXXXXXXX..XXXX.XX..XX.XXXXXoooXXoO++@OoXX..XXoXXoXoXXXXXXoXXoXXXX",
"XXXXXXXXXXXXXXXXXXXXX.........XoO+++oX.......XXXXXXXXXXXXXXXXXXXXXXXXXXXXXXXXXXXXXXXX.........XoO+++oX.......XXXXXXXXXXXXXXXXXXX",
".............................XooO++OoX......................................................XXooO++OoXX.........................",
"XXXXXXXXXXXXXXXXXXXXXXXXXXXXooooO++OOoXXXXXXXXXXXXXXXXXXXXXXXXXXXXXXXXXXXXXXXXXXXXXXXXXXXXXXooooO++OOoXXXXXXXXXXXXXXXXXXXXXXXXXX",
"oXXXooOOOOO++OO++++OOOOOOOOO++++++++++OOOOO++++OO++O++OO++++OOOoooXXXooOOOOO+++OOO+OOOOOOO+++O+++++++OOO++++++++OO++++O++OOOOOOO",
"Oooo+@##%#######%%%%#%%#%#%###%##%%%%#%%#%#%###%#%###%%%%%#%%#@+OOooo+@##%######%%%%#%%#%#%###%##%%%%#%%#%#%###%#%###%%%%#%%#@+O",
"+OO+%*=*==****&&*%&*&*&**&*&**&&*&&*&&&*&&&*&*%&&*&&&*&&&&*%%$#@++OO+%*=*==**&&&*&**&&&&****==**=***&&&*&&&*&*%&&*&&&*&&&*&&&#@+",
"+OO+*=**&%%%@@#@%@@%#%#%%#%@%%##%##%@@@%##@%@%@##%#@#%#@@#%@@#$#@+OO+*=**&%%$$$$%$%%%%$%%%%%&&%%%##%@@@%##@%@%@##%#@#%#@#%@@#$#@",
"+++@**&%%%##@#@@#%%@#@@#@%#%#@@@#@%@##@%%%%#@@%@#@%%@%#%%@####@$@+++@**&%%%#@#@@#%%@#@@#@%#%#@@@#@%@##@%%%%#@@%@#@%%@%#%@####@$@",
"+O+@&&%##@%%##%##@@%##%%@##@@@@%#@@#@#@%###@@#@##@#@###@@%@@#@@%@+O+@&&%##@%##%##@@%##%%@##@@@@%#@@#@#@%###@@#@##@#@###@%@@#@@%@",
"+OO+&%@@#%@@#@#@####%@@@@#@@#%#@+#%@%@#%@#@@###@##@@@%@++%@#@##%++OO+&%@@#%@#@#@####%@@@@#@@#%#@+#%@%@#%@#@@###@##@@@%@+%@#@##%+",
"OoO+%###@#%%+@##%###%@@#+@##@%@@#@%%##%#%@%##@@@@%@@#@#@@%#@###$+OoO+%###@#%+@##%###%@@#+@##@%@@#@%%##%#%@%##@@@@%@@#@#@%#@###$+",
"OoO+%##@@#%%#@@@@@@##@%@%@@@#%%@@%@#@###@@#@@@#@#@@@##@####+#@#%@OoO+%##@@#%#@@@@@@##@%@%%@@#%%@@%@#@###@@#@@@#@#@@@##@###+#@#%@",
"OoO+%###+#@@@@##@+#@#+#@+@###@+#@##@#+#@##@@#@#@#@#@%#@##+#@@#+$@OoO+%###+#@##+#@+#@#+#@+@###@+#@##@#+#@##@@#@#@#@#@%#@#+#@@#+$@",
"OoO+%#+@#+@@+#@#+@@@+@#+@@@+@@@#+@#%@@+#+@##@#@#@#@@@@###@@@@+@$+OoO+%#+@#+@+@@+#@@@+@#+@@@+@@@#+@#%@@+#+@##@#@#@#@@@@##@@@@+@$+",
"OoO+%@@#+@++@@@+@+@@###@#@+#@+++#+@@#@@#@#@+@@%@#@@%@#@@@@##@@+%+OoO+%@@#+@+@@+@#+@@###@#@+#@+++#+@@#@@#@#@+@@%@#@@%@#@@@##@@+%+",
"OoO+%#@+@@@@+@@##+#+@+@@#@@@++@@+@+@#+#@#@#@@+#%@#@@%#@%%+%@@#+%+OoO+%#@+@@@+@#+@+#+@+@@#@@@++@@+@+@#+#@#@#@@+#%@#@@%#@%+%@@#+%+",
"OoO+%#+@++@@+#+@+@+@@#@@@@##O@+++@#@+@@+@##@+@#@%#@%@+%@@#@+@++$+OoO+%#+@++@@+#O+@+@@#@@@@##O@+++@#@+@@+@##@+@#@%#@%@+%@#@+@++$+",
"OoO+@@@+@@OO@+@@#+@+@@+%O@#+@O+@+@+++@+@@+##@@@#+@#+@%@++@+@+#@%OOoO+@@@+@@O+@O@O+@+@@+%O@#+@O+@+@+++@+@@+##@@@#+@#+@%@+@+@+#@%O",
"OoO+###++#@@+@+@@+++O@@@@+@+O@+O++@+O@@#@@+@+@#+@+@++@+@@+@+++@$+OoO+###++#@@++#++++O@@@@+@+O@+O++@+O@@#@@+@+@#+@+@++@+@+@+++@$+",
"ooO+%@@O@@@@+++O@O@@+@O%++@++@+++@++@O@+@+@+@#+@+#+@+@@++@+@OO+$@ooO+%@@O@@@+OO+@O@@+@O%++@++@+++@++@O@+@+@+@#+@+#+@+@@+@+@OO+$@",
"ooO+@+O@@O++O@@+@+OO++++++@#+@@O+++++@O+@++@++#+@O@O+++@@O@O+@@$+ooO+@+O@@O+O++@@+OO++++++@#+@@O+++++@O+@++@++#+@O@O+++@O@O+@@$+",
"ooO+@@@+O@OO+OO++++O+@@OO+@O+#@+O@+#@+@O+@+++++OO++@O+@++@+++@O$OooO+@@@+O@O+O@@+++O+@@OO+@O+#@+O@+#@+@O+@+++++OO++@O+@+@+++@O$O",
"ooO+@+OO@OOO++O+@+O#@O@@++O+O@O@+O@+O@OO++OO+OO++O++++@+++OO++@@OooO+@+OO@OO+OO+@+O#@O@@++O+O@O@+O@+O@OO++OO+OO++O++++@++OO++@@O",
"ooO+@+O+O++++O#@OO++OOO@OO+O@+@O+@O@OOO+OO@OO+@OOOO@+O+OO+O+OO@@OooO+@+O+O++@+O+OO++OOO@OO+O@+@O+@O@OOO+OO@OO+@OOOO@+O+O+O+OO@@O",
"XoO+@@++++OO@++O+OOO++O++O+@+O+O+@OO+O++@+++@O@O++OO+O+OO+O++OO#OXoO+@@++++O@++O+OOO++O++O+@+O+O+@OO+O++@+++@O@O++OO+O+O+O++OO#O",
"ooO+%++O++@@+O+OO++OOO@OO+O@+@O+@O@OOO+OO@OO+@OOOO@+O+O++O+OO++@OooO+%++O++@+O+OO++OOO@OO+O@+@O+@O@OOO+OO@OO+@OOOO@+O+O+O+OO++@O",
"XoO+@@o+OoOOOOO+O+++@O+OOOO+OO+O++O++OO++OOOO++OOOO++O+++@+OOO+#OXoO+@@o+OoOOOO+O+++@O+OOOO+OO+O++O++OO++OOOO++OOOO++O++@+OOO+#O",
"ooO+%OOOoOOOooOOooOO+O+oOOOOO+O+OO+OOO+O+O++O+O+++OOOO@OO+OOO+O@OooO+%OOOoOOooOOooOO+O+oOOOOO+O+OO+OOO+O+O++O+O+++OOOO@O+OOO+O@O",
"ooO+%++OOoooOOo+o+oo+Oo+o+OOoO+OoOOO+O++OOO++OOOO++O+O+@@OOOOOO+OooO+%++OOooOOo+o+oo+Oo+o+OOoO+OoOOO+O++OOO++OOOO++O+O+@OOOOOO+O",
"ooO+#O++ooOOoo+oOooOooOoOOoOOoOo+oOoOOO+oOOOoOOooO+OO+OOOO+OoOO+OooO+#O++ooOoo+oOooOooOoOOoOOoOo+oOoOOO+oOOOoOOooO+OO+OOO+OoOO+O",
"XoO+@+ooOoOOooOoOooooooOooOooOoOooOoOoOoXXooOoXOoXXOoXoOOoOoOOOoOXoO+@+ooOoOooOoOooooooOooOooOoOooOoOoOoXXooOoXOoXXOoXoOoOoOOOoO",
"XoO+@OooXXXXXXXXXXXXXXXXXXXXXXXXXXXXXXXX..XXXX.XX..XX.XXXXXXXoXoXXoO+@OooXXXXXXXXXXXXXXXXXXXXXXXXXXXXXX..XXXX.XX..XX.XXXXXXXoXoX",
"XoO++oX........XXXXXXXXXXXXXXXXXXXXXXXXXXXXXXXXXXXXXXXX..........XoO++oX.......XXXXXXXXXXXXXXXXXXXXXXXXXXXXXXXXXXXXXXXX.........",
"ooO++OoXX.......................................................XooO++OoXX......................................................",
"ooO++OOoXXXXXXXXXXXXXXXXXXXXXX.....XXXXXXXXXXXXXXXXXXXXXXXXXXXXooooO++OOoXXXXXXXXXXXXXXXXXXXXX.....XXXXXXXXXXXXXXXXXXXXXXXXXXXXX",
"OO++++++O++++OOOOO++OO+++ooooooXXXooOO++++OOO++O+++++OO++++++OOOO++++++++OO++++OOOOOO++++ooooooXXXooOO++++OOOO++++++OOO++++OOOOO",
"%$$#$$###$#####$###$$$#####@+OOoooO+@####%%###%###%#####%###%##%%%%#%%#%#%###%#%###%%%%#%%#@+OOoooO+@####%%###%###%######%%%####",
"&*&&&*&&&*&*%&&*&&&*&&&*&&&#@++OO++@#&&&&&&&&&&&&&&&&&&&*&**&&*&&*&&&*&&&*&*%&&*&&&*&&&*&&&#@++OO++@#%&&&&&&&&&&&&&&&&&&%&&&&&&&",
"#%@@@%##@%@%@##%#@#%#@#%@@#$#@+OO+@%*=*&&&**&&&&&&&&&&&&&%%%%%%%%%%%%%%%%%%%%%%%%%%%%%%%%%#$#@+OO+@%*=*&**==***&&*&*&**&*&**&&*&",
"%@##@%%%%#@@%@#@%%@%#%@####@$@+++@#*=%&%%%&%%%%@@%#%#%%#$$####$#$####$%%$#@@%@#@%%@%#%@####@$@+++@#*=&&%%%&%%%%@@%#%#%%#%@%%##%#",
"@#@#@%###@@#@##@#@###@%@@#@@%@+O+@%*%#%#@#@%%%#%%@#@@#@%#@@@@%#@@#@#@%###@@#@##@#@###@%@@#@@%@+O+@%*&%%#@#@%%%#%%@#@@#@%#%#@@@#@",
"%@%@#%@#@@###@##@@@%@+%@#@##%++OO+#&@%##@%##%##@@%##%%@#@@#%#@+#%@%@#%@#@@###@##@@@%@+%@#@##%++OO+#&%%##@%##%##@@%##%%@##@@@@%#@",
"%%##%#%@%##@@@@%@@$@#@%#@###$+OoO+#%%@@#%@#@#@####%@@@@###@%@@#@%%##%#%@%##@@@@%@@#@#@%#@###$+OoO+#%%@@#%@#@#@####%@@@@#@@#%$@+#",
"@#@###@@#@@@#@#@@@##@###+#@#%@OoO+%*###@#%+@##%###%@@#+@@@#%%@@%@#@###@@#@@@#@#@@@##@###+#@#%@OoO+%*###@#%+@##%###%@@#+@##@%@@#@",
"#@#+#@##@@#@#@#@#@%#@#+#@@#+$@OoO+%&##@@#%#@@@@@@##@%@%@###@+#@##@#+#@##@@#@#@#@#@%#@#+#@@#+$@OoO+%&##@@#%#@@@@@@##@%@%@@@#%%@@%",
"#%@@+#+@##@#@#@#@@@@##@@@@+@$+OoO+#%###+#@##+#@+#@#+#@+@@+@@@#+@#%@@+#+@##@#@#@#@@@@##@@@@+@$+OoO+#%###+#@##+#@+#@#+#@+@###@+#@#",
"@@#@@#@#@+@@%@#@@%@#@@@##@@+%+OoO+#%#+@#+@+@@+#@@@+@#+@@+#@+++$+@@#@@#@#@+@@%@#@@%@#@@@##@@+%+OoO+#%#+@#+@+@@+#@@@+@#+@@@+@@@#+@",
"+@#+#@#@#@@+#%@#@@%#@%+%@@#+%+OoO+%%@@#+@+@@+@#+@@###@#@@@++@@+@+@#+#@#@#@@+#%@#@@%#@%+%@@#+%+OoO+%%@@#+@+@@+@#+@@###@#@+#@+++#+",
"#@+@@+@##@+@#@%#@%@+%@#@+@++$+OoO+#@@@+@@@+@#+@+#+@+@@#@##O@+++@#@+@@+@##@+@#@%#@%@+%@#@+@++$+OoO+#@@@+@@@+@#+@+#+@+@@#@@@++@@+@",
"+++@+@@+##@@@#+@#+@%@+@+@+#@%OOoO+%@#+@++@@+#O+@+@@#@@@@#+@O+@+@+++@+@@+##@@@#+@#+@%@+@+@+#@%OOoO+%@#+@++@@+#O+@+@@#@@@@##O@+++@",
"@+O@@#@@+@+@#+@+@++@+@+@+++@$+OoO+#@@@+@@O+@O@O+@+@@+%O@@+O@+O++@+O@@#@@+@+@#+@+@++@+@+@+++@$+OoO+#@@@+@@O+@O@O+@+@@+%O@#+@O+@+@",
"++@O@+@+@+@#+@+#+@+@@+@+@OO+$@ooO+%###++#@@++#++++O@@@@+@++@+++@++@O@+@+@+@#+@+#+@+@@+@+@OO+$@ooO+%###++#@@++#++++O@@@@+@+O@+O++",
"+++@O+@++@++#+@O@O+++@O@O+@@$+ooO+#%@@O@@@+OO+@O@@+@O%++@#+@@O+++++@O+@++@++#+@O@O+++@O@O+@@$+ooO+#%@@O@@@+OO+@O@@+@O%++@++@+++@",
"+#@+@O+@+++++OO++@O+@+@+++@O$OooO+%@+O@@O+O++@@+OO++++++@O+#@+O@+#@+@O+@+++++OO++@O+@+@+++@O$OooO+%@+O@@O+O++@@+OO++++++@#+@@O++",
"@+O@OO++OO+OO++O++++@++OO++@@OooO+%@@@+O@O+O@@+++O+@@OO+O+O@O@+O@+O@OO++OO+OO++O++++@++OO++@@OooO+%@@@+O@O+O@@+++O+@@OO+@O+#@+O@",
"O@OOO+OO@OO+@OOOO@+O+O+O+OO@@OooO+#@+OO@OO+OO+@+O#@O@@+++O@+@O+@O@OOO+OO@OO+@OOOO@+O+O+O+OO@@OooO+#@+OO@OO+OO+@+O#@O@@++O+O@O@+O",
"OO+O++@+++@O@O++OO+O+O+O++OO#OXoO+#@@++++O@++O+OOO++O++O+@+O+O+@OO+O++@+++@O@O++OO+O+O+O++OO#OXoO+#@@++++O@++O+OOO++O++O+@+O+O+@",
"@OOO+OO@OO+@OOOO@+O+O+O+OO++@OooO+#%++O++@+O+OO++OOO@OO+O@+@O+@O@OOO+OO@OO+@OOOO@+O+O+O+OO++@OooO+#%++O++@+O+OO++OOO@OO+O@+@O+@O",
"O++OO++OOOO++OOOO++O++@+OOO+#OXoO+#@@o+OoOOOO+O+++@O+OOOO+OO+O++O++OO++OOOO++OOOO++O++@+OOO+#OXoO+#@@o+OoOOOO+O+++@O+OOOO+OO+O++",
"+OOO+O+O++O+O+++OOOO@O+OOO+O@OooO+#%OOOoOOooOOooOO+O+oOOOOO+O+OO+OOO+O+O++O+O+++OOOO@O+OOO+O@OooO+#%OOOoOOooOOooOO+O+oOOOOO+O+OO",
"OO+O++OOO++OOOO++O+O+@OOOOOO+OooO+#%++OOooOOo+o+oo+Oo+o+OOoO+OoOOO+O++OOO++OOOO++O+O+@OOOOOO+OooO+#%++OOooOOo+o+oo+Oo+o+OOoO+OoO",
"OoOOO+oOOOoOOooO+OO+OOO+OoOO+OooO+@#O++ooOoo+oOooOooOoOOoOOoOo+oOoOOO+oOOOoOOooO+OO+OOO+OoOO+OooO+@#O++ooOoo+oOooOooOoOOoOOoOo+o",
"OoOoOoXXooOoXOoXXOoXoOoOoOOOoOXoO+@@+ooOoOooOoOooooooOooOooOoOooOoOoOoXXooOoXOoXXOoXoOoOoOOOoOXoO+@@+ooOoOooOoOooooooOooOooOoOoo",
"XXXXX..XXXX.XX..XX.XXXXXXXoXoXXoO++@OoXoXXXXXXXXXXXXXXXXXXXXXXXXXXXXXX..XXXX.XX..XX.XXXXXXoooXXoO++@OoXX..XXoXXoXoXXXXXXoXXoXXXX",
"XXXXXXXXXXXXXXXXXXXXX.........XoO+++oX.......XXXXXXXXXXXXXXXXXXXXXXXXXXXXXXXXXXXXXXXX.........XoO+++oX.......XXXXXXXXXXXXXXXXXXX",
" ...........................XXooO++OoX.......................................................XooO++OoX..........................",
"XXXXXXXXXXXXXXXXXXXXXXXXXXXXooooO++OOoXXXXXXXXXXXXXXXXXXXXXXXXXXXXXXXXXXXXXXXXXXXXXXXXXXXXXXooooO++OOoXXXXXXXXXXXXXXXXXXXXXXXXXX",
"@OOOOOOOOOOOOOOOOOOOOOOOOOOOOOOOOOOOOOOOOOOOOOOOOOOOOOOOOOOOOOOOOOOOOOOOOOOOOOOOOOOOOOOOOOOOOOOOOOOOOOOOOOOOOOOOOOOOOOOOOOOOOOOO"
};
