/* XPM */
static char *_518100102779[] = {
/* columns rows colors chars-per-pixel */
"128 128 64 1 ",
"  c #003300",
". c #330000",
"X c #330033",
"o c #333300",
"O c gray20",
"+ c #222222",
"@ c #333366",
"# c #336633",
"$ c #336666",
"% c #444444",
"& c #555555",
"* c #663300",
"= c #663333",
"- c #663366",
"; c #666633",
": c gray40",
"> c #777777",
", c #666699",
"< c #669933",
"1 c #669966",
"2 c #669999",
"3 c #993333",
"4 c #993366",
"5 c #996633",
"6 c #996666",
"7 c #996699",
"8 c #999966",
"9 c gray60",
"0 c #888888",
"q c #9999CC",
"w c #99CC99",
"e c #AAAAAA",
"r c #BBBBBB",
"t c #CC9999",
"y c #CC99CC",
"u c #CCCC99",
"i c gray80",
"p c #DDDDDD",
"a c #CCFFCC",
"s c #CCFFFF",
"d c #FFCCCC",
"f c #FFFFCC",
"g c #EEEEEE",
"h c white",
"j c #010203",
"k c #010203",
"l c #010203",
"z c #010203",
"x c #010203",
"c c #010203",
"v c #010203",
"b c #010203",
"n c #010203",
"m c #010203",
"M c #010203",
"N c #010203",
"B c #010203",
"V c #010203",
"C c #010203",
"Z c #010203",
"A c #010203",
"S c #010203",
"D c #010203",
"F c #010203",
/* pixels */
"O9d86:6:::;::::6;::oXo-fu6:6::::::::::6:OoXO9h68:6O::::::::6616:=Oo=:8:6>:>6>>>6>::=:6;oOOO9d:8:6::::::6:;OoO=9i68:6::::::;:=o+O",
"=8g886:6;6-:-6;::6:OoO=r98:6;6:5:4;:6::6-ooO8u:8:6O6:6:6:6:616:6;6:8:6626>:8:>61:6:O8::O.OOti866:6;::;:6:6XoO%8f:86:6:=6:;6:O.OO",
"O:96::6:::;::::6:;6:.OO;=96:::-:::::;6::6OoO=;68:8O::::::7:>6>6166:6:616>>6,:>>:616=1:6OoO=;;:6:5::6-::6:8OoX=;::6:;::::6:::;OoX",
"O==8:6:;6-:;::=:6::6:*O=86:;6:6::=:4:::6;6-oO:8:6:=::6::6::6268:61616>6,:61>8:7626:O6:6:=Oo=:6:6:;:::;:;6:6=ooO;616:6:;-:-;:6=Oo",
"O=:5::6::;:-6::6::::6:56::5:::;-:6:::;:::6:5:66:8:=:::::>:8:6>>606>6:>>:8:7::61>:::;:6166;::668:6-::::::6:6:6;6:6:6;:=:6:::6;6;O",
"516:;6;:6-;::=::::5:66:::6::6:6:=::=::66:16:6;:6:8O6:6::::>>>>61626>>:6:,616>6::86:;:6:8:66:6::6::6-;::6::86::6;8:6:6:-::-:;::66",
":6;:::6:::::::::6:::::6:61:6:::;::6::=::66:8:6:6:6#::::6:6:6:>>7:8:7:8::61:7>176:>:=>::6::8:616::6:::6=::6:>66:6:6:::;:::;6:6::6",
":6:6:6::6-:::=:::6:6:8:6::6:;6::6::=6:6:::6:6:61::=6:6:>&>:16:8:8,617:8::6:8,6>0::&;:6::6:6:>6:::6;:-::::>:>:16:8:;6:6:4::::6;6:",
":5::;:=6::;-::6:::6:::6:6:::::=:-;:::::;6:::61:6:6:::6>6:0:::7>:76:86,6>>::78>7:6::6:::6:::6:::::::::::6::6::6:>::::::;::=::;:6:",
":::6::::;:::6;::6:::6::::::=::::::-:;:::::6::6::6:;:::>:26,6>:6161::6>8:7:6>:8>8:6:::;:::6::::;6:=:-;:;:::::6::::;6:=::-::;:6:::",
"6:5::5:-::=::-:=::6::6:6;-;:6=:::=::-6:6::::::;-::=:6:8:6>61:6,8,6:8:6>716,6,06,1::;:6:6:::6:=:::::;:-6:6:::::6:=:-::6:;::-:::6;",
"::::-:::=::-:;:::::5:::::::-:::=:::;::;::;6:6:6:::=;::6,:8:,6:16:8:6:8:>>61617:866;:-::;:::;:::=:=::-::::::5:::-::::;:-:;-;6:;6:",
":;6;:=:;::;6=:::6=:::5:-;:;:;-:::=:-:6::6:::;-:;6:=::60::6>6>6>616:6:87:617:616,8,:=:;6:6;6::;-::::=:;:6;6:::6;:;-;-::;-:::-;:::",
";6:::;:-:-:&::=:::6:6:::6-:-::=6;:::::::::6:6:6:::O:8:::6::>:6:>6:6:6:6:>696:62616:;;:::6:::6:::;:=::4::::6:6::6::::;-::::;:-:6:",
"::6:-6:;-::::::6:6:6:6:::::6;-::-:=:6:6:66:;::;:6;=::68:7:6>616::;;:61:8::8>8:6>61:=:66:6::6:;6:-;::;::6:6:6:;6::6:=::;-;-6:6;::",
"6::6:::-;:;:=:::6::6:::5:6:-:;::::::;6:6::6:66:6::=::0:8:::>>6::OoO=;66:86,8,6>0>6:;:::6:6;:6:6;:-:-::::6:6:6:::6:::-::::::::6:6",
":5;6;6:;:6-::6:::66:56:6:6:;:-:;-;6::::66:5:6:6:6:;:6>:7:66:8>6ooOO::6:6>>6>8,616>:=:6:6:66:6::6:;:6:-6:6:6;6565:6::;:-;:;:5:;6:",
"5:6:6::-:-:;-;:6:61:::;61616::;-:;-::6::6::==;86::=::6:6:8::6::oXO=8p8616:8>6:>626:;:5::5#=;:66::6::;:6:6:6:=O;616:6:;:-:6::;6:6",
"Oo;6:6::;::=:6:::6;;=o.O;66::::::=::6:6:;;ooOO;96;=;>>:26,68:6;.OoOti:86>0:716>:6>:=::6;O.Oo;8>::;-;::::6;;OoOX=86:::-:;:::6:6=O",
"oO=:65:6:=:::::6::6OooO=O96:6::=:&6:;::6:oXOO-=8::=:26:6::::6:;OoOO#=:>616:>6:8616:&6::OoOO=%66:6::6:6:6:6OXoO;=>8::6;::::=:6=oo",
"O=6;8:6::::=6:::6::.OO=u68::5:::::::6:5:;XoO5f06:6#:6:8>:8616::=O.O=O6617617>>:6>8:=:6;O.O=iu>:6::::=:::;:oOo=rw6:6:::-;-6:6:oXO",
"O;h866::;6-:;-6:;6:OoO=iu666:::6=:=::::6=OoO:i986>=::6:26:,8:6:6;O*O;616::6:8:7>:::;::6OOO;it86:6:5::6:6:6O.O=uy866:6:;::;::6.Oo",
"O=t:6::5:::;::;::::=.OOu:8::5:6;:::6=6::6OoO=8:6::=:8:7:8,8:616:6:;6:6:616:>:616:6:&:6:;.OO6:6:6::::=:::6:;OoO6:8:::::-;:-6;:=oX",
"O@=:86:::::-:-:6::6:OO=O68:6:;::-:=::::::6=oOO686:%;7:8:7>>0,6:6:6:61616:>>60:6:6:-;:;:6;Oo=:85::5-::;:6::6=OO=:8:5:6;::=:::6:Oo",
"o=;6::5:::=:;:-::5:66;o:66:6:6-:;::;:6:6;:8=;616::=:>:::8:6>1626::6:6::6::>:>>>>16:;::6:6:=:56::6::;-:6::::8:=;66:6::-6;:-;6::5O",
"6:6::6::-6::-:;:::::::66:6;:::;::=:-:::::6:8:6:6::O:>6::,8,:8,61:6>8:6::>6>>6:6:,>&%-6::16;61:6::;:::=::;6:66:6:6:::6;:-:;-:6:6:",
";:;6:;6:;:=::=::6::56:6;6:6:6-::-::;-:;6::6:::6::;=:61,8:6>0:6260:::::61:::>>>>>6>:=:::6:6:6:6:::-;4:::6:::::6;6:;:6-:-;:-:;:;:;",
":6::::::-::;-:::-::::::6:::=::=:;:=:::-::::6;6::::;:>::7:>>>626>0616:8::616:>>:>>:;::;-:::6::;:-;::;:;:-:::6:6::::-;:;::=6:-:-6:",
";-:5:=::5-:-;:=6::;6:6:::5:::;:-:-::;:6::::::::6::-;6>:6>:>>:716,>6:6:>8:6,6:>6:6>-;:6:::6::6::::-:--:::6;-::::6:6::-:-;:&:;:;:6",
"::::-:=::=:;:-:::::::::::6-;--:;:;;-:=::-;:6:=::::=:>:>0:::>616,80>:26:>:>1:>>:,:>=::::-:::;:6;:;:=:;-;-::;:6::::;:=:;:-;-;-:-;:",
"=:=:;-;:-::=-;-;-;-:::=::::::;-;-&-;::-;::::::6;-8:::6>>>6>:>>>>::>>::>6:6>6>>8:62;76;::;:-:::=:=::=&:::-::::;:::-:;:-;-#-::;:-:",
":;:=:&;-;:=:-;:=:::=6:::6:=:-;:&&;&:=:;:-6;-;::::9;:>6::>>:::::86,6:>6:2:1>:>:>>:7;:::=::::=6::::-:&-;-=:;-;::-6:;:-;@:=::=:-::;",
":-:&-;-;:=:;&&-:;::::::=:::;-:=:-&-&&:-:;::::6::;-=:61:6,6>6:6,>>:16::6>6:6>:0:>61-;:6::6:::::;-=;:=:-:::::::;:::-;-;&&&&::=:;-;",
"-;::=:;-:#-:-&;-::=:;6:6:5-;-;:-;:;:=:;::::6:::6:8%;:6:>:71:6::6:6::616:>6>::6:>:>:&6:=::;::5::;-:&-;:=::::6:6:6:;:#:=::&=::=:;:",
";:=:::=;-;:&;-&;:::66&:6:::;-;-;-:-:;-:6:6:;6:6::6O:6:>:::6,1:616>:6:6:8:>:6::::6::=::6:6:6:::=::=&&&-;::=:6;::;6:-:-;-&:&=&::-;",
"::=:=;-:&=:-::;-:6;::6:;:6;-::;-:=:;-:;::5:6:;-5:6O;:6:,6:16:6:6::;616>6>6:8:>>6>::;6;::6::5;66;:::=:;-::6;6::5-:6:;:$&:=:&::5::",
":5::::;::=&=&-:;::6;6:6::6::;-:;@;-:::6:5::6:6;::6O::8::>:7:::>:OoO=:6:6::8:::61:6:#:6:;66:6::::=:;:-;:6::6;66;6:;:=:==&:-;-:::5",
"6:66;-;-:;-:&;=:6:6::6=;6:5:;:-;-:=;-;:::6:==;66:>=;:6:::>::6:6O.=O=;8:>8>:7:8:,6:::::6::;O=656;:-;-;-::;6::;O;6:6:;::=:$=:;:;6:",
"oOo6:6:=::=:=$-::;6;=ooO;6:::;:-;@:=::6:5=oo+O:6:6#-:::6::6::::OoOO8y68::61>>:716>;-;6::oXoo%6::6;:=#:;:6:;=.oX;6:6:=::==&:-:::=",
"XoOO6;6::;:=:-;::6:Oo.OO=:6:6:-;:-;:-;:::OXoO==:8:=;6::::::>6:-oXo=9i>862606:>>:8>:;::;=XoO=;::6:-;:-;-::6O.oOO=:6:6:=:&:=:;:5O.",
"o=:8:6::-:=$;-:;::6+Oo=896:6:;::=;-;::6:;.oO=i88::=&>::::6:::6;XoXO;::6>617:>:6,6>;=:6:o+OO9i68::::=::;:5:OoO=6i8:6:::=:=::=:;.o",
"O-8d::6;::-;-;:-:6:O.OO8i:8;:6:=:$=:=:=6:OoX;9e66:O:::6:::6::::OoOOO=:61,61>:6>:8,&-;:6OoXO6u::6:5:::=::::OXoO:i:6:5:;:&=:=:6:+.",
"oO:9::::6::-;-;:;::=oXO668:::;-:;-;-::::;=Xo%:;6:;=;::::::::66:;=.oX=:86:6,6:1:>>6;#:;::.O=::6:;::-;=&:=:6;oXO5:61:::-:=&-;:=:o+",
"OO==:6;:-;&=$-;--:;:Oo=O;:6:3::=:=:-;-;-::OOO=:6::O;-::-::::::6:::=;:6>:>:8::7:6:>&=:=::=oo=;:6:6;:&-:=:;::=OoO;6:3:=::;-#-=&6:.",
"OoO;:::;:-;-;=&;:=:6;-;:6::;::;:=$=#-;::=:;:;:6:;:.-;:;:-::6:;:6::6:::6::6:>::::>::O:;-:;6::6:;-;-:=;-;-&::::6:6:::::;-:==&#-:::",
"=:=6:;===;=O=O-O=;=-;:=::;:=:=:=&=:=:%==:;:=6;:;;6O;::-:;::::>6166::5:>:8:6:>6:>6>=o:=:;-;-;:=:===O=OO;O%==;-;=;=;-;=-=#=$==O=;=",
"OO=OO=O=:O=OOO=O=O%OO=OO=OO=OOOO=OOOoOOOO=O=OO=:O.oO:6::::-6::6:>:6:8::::>::6::::6:.OO6O=OOOoOOoOO=%9-OOOOO.OoO.+O.O.Oo-i=OOOOOO",
"==:;=O=O;O%;=OoOO=O=O=O==O=O===O;&;==O=O=O=O==O=%=O-:::-:6::6:>>6:::6:6:>6:6:6:6:::%;=;&;:=:=:=-;-;:-;=;==;-;-;-;=%;=#-;6&;=O===",
"::=::=:=:=-O;=:=:=:;:;::;::;:&:-:::$::;:=:;:;:::::::;::;:-:::6>:0:6:>>:>6::>:>:::::;:::::::=::=:&&::;::::::::;-;::-:&:;:&&-:;:&:",
"-;&=:=$=%-;=@=O%=%:&-=-;-:=-;-;-;-=:=&=:&:=:-::;::;::=::::::::>:>::6::6:,:6:6:::-:-::=:-:=:::=:&;-;-:::-::-;-:&&-&&;-&-%-;-;-:=:",
"=$-;-;-;@;@;=&=&&=-;;@;-;-;&-;@;@;&:-;:=&;-;:;-:=:-:::::=::;:6>:6:::>:::6>:>:6::::;:::::;:-;-&::=:::;-;:;-::;-;&:=:-;&;-#=$=&=:=",
";-;@;-#-=;-;-&&%=:#-:=:;-;-:&&=;-;-;&;-;::=:;-;::;:;:=::6::6::::>::::6>6::6:6:-::-:;-;:;-:;-;:=:&:;-:::-::;:&:=:=:&=:-:=:=:=:&&&",
"=&;-:=&;:-#-;-;-#-=&=:-%;@;-;-&&=&:-;-;-=;&-;::-;-:::::::6:::::6:6::6:::::6>::6::;:-;:-;:=:;-;&:;-:;:;:;:=:=:=&;-;=:;:=&=:-;-;-;",
"$=-;&&=:=&=&O;@=;-;-:%;@;-;-;:=:&-;-;-;&;-&;-;=:;:;-;3:5::::=6;::::6;::::>:6:6::6-:;-;;-;::=:&-;-;:;-:=:=:::;:&-;:&=-;-;-;&&:=&=",
"=:=:-:&-&::=&-;:-#-;:=&=&-;@;-:;-;@;-;-&&;::;::=:-;::::::5-::=:-;:=:::6:6:>>:6::::;:;-:::=:&;-;-;:-;:;::;-;-;-;&:=&:=&;-;-&;-;@;",
"&:-;:=:;:&=:-;@;-&=&=:-::&;:-&;-:=:&:@;::;:=:=:;:;-;:=:;-::;::;:-;:;=:;::::6:>:6;::=::;-;:;:;::;-;:;:-:=::;:;::=:::=:&-%&;-:=:::",
":;;-;&:-:=:;&=&=&&&&:;=:=::=:;-#-;-;-;:-;-;::;:-;:;:-;:::;-:=::;::=6;-::6:6:6:6::-:;:=:;-:-;-;:-;:-;:;;:=6-;-;:;:=:;:=:;-#:;:;-;",
":=::=:;-;-;-&:=&&-;-;-:;:;6=:&-:;-&&;-;:;::-;:=:;-:;:;::=::;:-;-:;6=:;=::::>:6:::;6-;:=:;:;6;::::;:=::4;:-;:;:;6::;-:&;-:=:=;-;:",
"6:5::;-:;@;-;-#-;:-;:;6:4;:;-;&;-&;-:::-6;6;:;:=:;6-;-:;::3:;:6;;-;:5:6;:::6:::;-::;::;-6::6:;-;:-;:;:::;;-6:6:;=::;-;-;@;:=:;:6",
";==:5:;-;-#=@;-;--;-5:=;6:6=:=:@;-:;-;:;;:6;6:5:;-;::;::=:::4;:4:;-;6:=:::::6;::;:=::=6:;=;;6:5-:;::6-;:=:6;==6:6:=::;-:&=:=:=::",
"OOo.;:6;-=&-;O=@;&:;:=oOO;6:;-;-;&:=::-6:5OO.=:5::;-::=::;-;::;;O.o==:5:6:;:::4;-:5:=::;=O.O:;:;:=:;=:;-;6;OooO;:;6:=&&=&&=:;66=",
"6OXo.:-:&&;-;-&=;-;:O..*-;6:;;-;-&=:=:;:6O.oO;::;6:;-;::=::;:;6O.o=::6:=::::;::;:;-:6;6::OOoO65:;:;-:;:6:6:6Oo.O6:;:=:&;-:=:=:6:",
"fOo+.:;:=&-#-#=@;::=o.O%i96;-:=&=&::=:::;.O.=f6:::;6;:-;:;-:=:=.+.Out:;:::6-:-;:-;:;:::ti=..O;:-;-;:;::;:68pOXo.:;-;:-;-#-;:5:6u",
"9%oXo=:;:-;-;-&=:=:;XoXOu8:6;:;-#-;-;-5:= .O%i:65-;-::;:::5:;::.oOO08::5:;::;:6:;:-;:;6;9oO .-;:-;:;-:=6;:68OoX =::-:;-&=-;-;6:8",
"OoO. :::=;@=&%=&::6;.+oO==8;-;-;-;-;::;:=XooO=O:::::;-:=:=:-;:;O..O=O6:::4::;-;:-:;6-;6O=oX.O;:;:-:5::::=6O=.o.o-:;:=&=&&&:=:6:*",
"O.oO=:5:&-;&=&=:=;::%.OXo;6::;:-;@;-:;-;:O.+.o:5:;5-;:;::::;:6:=Oooo:::5:;6;::::;:::;:6;O.oO=:;-:;:-;:=:;:6oO.O;6;-;::-;-;-;:;8:",
"68:6:5:=:=@;-&&=&:=:6:=;:6:;-;-;-;=&;:::;:;O=:6;:-:;:=:-;-6:;-;:;-=:6;::::-:=6;-:-;:-;:6:;=::;6:=:=:-::;6;6:=;:-:::-;=$-;-;:=:66",
":5:6;:-;-;:=&&=:=:-:;:866:6;-;-;&%:-:=:=6=:6:;6::;:=::-;::;::6::;:;:;6:5:6;:::-:;:=6:;::;:::5:-;::-;:;;-:::6::;:;-;;-&-;-;&=:=:;",
":-;:=:;:=@=:=:@;-;-5-;:;;:=:;-;@;-;&:;-:;:5:;::;-:=:;-;:::-:6;:6:;::::=::::6;::;-:=&:-6;6=6:=:;-:;-:=:-;:;-;:3:;:;-::;-#-&-;:;-:",
"=;:=:-;-:=:=$==&=:&=:=:=:-;:&=:=:O;-=:=:;-:;-6=6:;::-;-:-;6;:::;::5:5:6:-5::-:6::=::;;:=::;::-:=:-;::=::4;::;::6-;-;-=&=:=:=-=:;",
":-=::=-;@;@==$=&&-;&:=:;-;-=;-#-=-;-;-:=:;:-;::-;-=:&:;-;::::;-:6-:::::6::::5:-::;-:=:-;:=:-;:=::=:-::;=:-;-:=:=:;:=$=-$=#-#-;-=",
";-;-;:-&=-;-#-=&=;@=::=-;-;-%-=%;&=$=&=:;-:;-:=:-;:&=&:-::::-6;::;:6:6:;:::6::::;-:;-:;-:&;:=:&:&-:;-;-:-;:;-;-&;-;-;-;&=@=&=&=:",
"-#-#-&;@;@=:-;@;@:=:&-#-=&-;%&=:@-;-;@:;-:;-:;&&:=&:::=::-;::::::6::::::6-6::6::::=::=:;-&-&:=&=&:-&:&;=:&-:;:&:-#-;@;@-;-;-#-&=",
"-;O-;-;-&=&=$=%-;-&&=&=&&-;%-=$-;&=$-;=:&:&:=:::&&&=&=::;:-:-::6::::;:4::::::::6:::-;:-:;::;:&:&:&&:;-&@;::&-:-;::-&&-:#-;@=:=&=",
";-;-#-@;-;@;-;@=%;-;@;-#-;@;-;=-%&&::-:&:-:&&:=::=::&:-;-::;-;-:::6::::::6:;6:6&:;:;::;-&-;-&:=&-;:-:;&::-;:;-;-&;&:;:=-;@;-;-$;",
"@;&=:=:;-;-&=:=#-;@;-#-;-;-;@;@;-;-;@;&&=&;-::&:&:&&-;:-::=::::;:-:6::6:::6::::::::-:-:;::-:;-&:;-::=::-;::&-$:&;-:=&-;@;-;@;&;-",
";-;-;&:=:&:;:=%==&:=:=:-;:=&:=:=:-;-:;:&::-:;-:;-:;:::;&&-:=:::6::;:::::6-::6:6::6:;:;-::;:=::;-&:=:::=::-;::;-&:&;:-;&;-;:=:=::",
":::=:;-:=:=:=O:&:=::=::;:::=:;:-;&:;&-;-:-;:::::;::=::&-:;:::6::::6:6:6:;:6::::6:;::=::;:-;:-;-;-;:;-;=:;;-:;-;;-&=-;::-;&=::;:=",
"oO=%OOOoOOOO69OOO=O=OO=O=O=OO=OO:;=-OOOO=OO=O==O==O;::::;-:=:::5:6;:;6::6:::6:::6::=66O=O=O=OO=:O:OO=&=O:==O=o=OOOoOO.OoX9;=O-oO",
"==;=O==O=O=O:6=O=OO=O=OO=OO=OOO*:tOoOo=OoO=O*O#6Oo.=;::&-:;::;-:::66::5:::6:::4::6:;:%=-=;-;:;=#====OO=O=O=O==:===%==O=O==O=====",
";:::;-;-;=&=&&:=;:=;:;;;:;;::;-:=@;-:=&::;:;:;6;::O%:-::::-:6:6;5:6:5::5::::6::;:;6O:;:;::;:=:::::&;-;&;-;:;:;:;:;::::;-#=&=$;=&",
"-=;4;::::&:@;-;-:=::-6:6:6::3::-;-;-;&-;-6;6::6:;:o=6::;:::::6:>=oOO;:5-6:6:::::6::-=:-::=::6:::=::-;@;-::::::;:6:-;-;-&-&-:;-::",
"oOO=:6=:-;-;-$=&::;:=O*O6:;-::;:-;-#-:;:::Xo.=:6:-O:;::-::=::;6=oOO;:6:;::5-6:::;:6O;:;6=oO*:6;:6:;:-;-&;-6=.o=:6;::::;-;&:;-:;=",
"oO-;:6:;:::-&=::;-:-ooO-;66:5:-::&&=:;-::=.O;6;:6:=;::::::::6::o.OOut:5:6:::::;::::=:::-oXO6;:6:;::-;-:::;:o+=:;:6:5:-:-:=:-:6%.",
"O=8i;:6::6=&&-;-:6;=oX=89:6:::6=:=&:=::6;O.O%tt6::O::;-:=::6::=oXOOi9;::;6:::6-:6::o6::O.O=:d:6:6::=&;:=6:=.+O6d616::;=&;-;:;:.O",
"O=:u6:6-;:&:=::;:::o+oO9i68:6:::=&=::::::.o+=w986;==::::::::6::+.OO;=66:6:::6:::::6O6:6oXoO8u866:=:;:-::::XoO=1i:6:6=:::=:-:::.o",
"XO-;:6:::=:=:&=:6:6oXoO:;::6:;-;::&=:;66:oXOO==:8:;&:;-:::6::6;OoO.O;:;6:6:::::6;::o>:6OoOX=O:6:::;-;:::6:=oXo=O616:;:-%&;::;:oX",
"OOo=6:;-;::&&=::::::.oOO=86::;-::==:=::;6-oOoO:6::==::6:::::::6:=OO=6:6:::6:6::::6:O6;::OXoO;6:5:;-;-=:;6::OO.O;66;;-:=:;-=:6:=o",
"==:6:;::=:=:=:-;6:5::=o=:6::-:;-%:&:::6:6:6;=:66:6#::::::4:6;::5:;6:;6:6:6::-::6:::o7:6:5:O;6:6::-:&;::-:6;6;=;::::::;-&-;&::;::",
";::;::=::&=&-;-::6::;6::6:6:;-:;-;-;-;::::;6:5:::7O=6::6:::::6::6:;6::::6::::;:::6:O9;::::5:6::;::;-:=::6:6:6::6:5:;:-;-;::6=:6:",
":6;::3::-;:-:&;::-6;6:6;:;:-::;-:&::=:6;66::;:6:6:=::::::6:6::5::6::6:6::::-:::-:::o6:6:6::;:6:-:=::=::::5::;6;:;-:=:=::-&=&:6;-",
":;-:=:-:=:=:;-:-;:::8;:::-:;-;-;=:&=::-::::5:6;::8%;:6:6::::6::6::6::8::6::;:6-;:::O8:::8;6::6;::;-&-;-;-::8;:6::=::=:@:=:::;:::",
"::=:::=::=$:=&;-:6;:6::6;=:-;:&%:-;:-;::6:6:::6::6%::>:::6>:::6:6:::6:::::::::::-:6O6::6:::::::-=::;-&::6::6:::;-:;-&;-:;-;-;:=;",
":=::=:&=:-:=::=::::-:::::-;&&-:&=:&-;-::=::;::::::=;:6:>>:616:61:6::>:6:::-::::::::O>6;-:::5:6::=:&-;-;-:;-:=::6:&-;:-;-$:=:-:::",
":-:=&:=:&;:-;-&:=::5:-6:-:-&&;&:&-;:-;:::::-:6:::6::::6::>>:>:>:6::6::::6:::6:::::==9::::-::::;-:=:&:=:=:::6::-::=:&:-;:=:$:;=:=",
"-;::=:&;-:-;-;-;-:-::::;::;-:&:=:-:=:-;-;-6::;:4:8::6>>:>>6:>:6:::6:16::::;:::::-::O9=:=6:;:;:::;::-;-::::-;:::::::-:&:=$-;-:::;",
";-:::=:::=:&&&&:::;::::-::-:;-:;&&:&:::6::::-:::::=::6>:>>>:::::6:::6:::6::-:::::::o9:::::-6-6:-:=:;-:;-::;:6=:6:-;:-;:-;:-;:=::",
"=:;:;-:=:::;-:;-::::4;:;6:;-:;:-:&=:=:::;:6:;:6:6:=:>6:>6::::6,6::>6:::6:::::6::6::O86:::6:;::::-::&:=::6::::6;:::6::-:;-:;-:::6",
"::4:::;:-;-:=::6:-:::6:::::6:-;:;-:::6-::::6::::::=:6:,61,6:6::16:6::6::6:6::::6:6:=7;-:::6:6:;::;-:&:::;-:6::6:6:-:=:::;::6;-5:",
";6;6;:4:::::::-::;:6::6:66=:;:::-::;-:;:6:6:6:6;6:=::>8,6:::::6:6:::6:>6>7:::::::6:#6::6:6:6:6::6::::=::::6::6:6:;6:6:=:-;-;::::",
"::6::6::=:=:=:;:6:6:6:6;:::6:6=:;:=:::6:;6:6:6:6::O:6::8:::::::6:68:6:::::6::6::71:=::6:6:6:6:5:::3::::6:6;6:6:6:::::::;:-::6;6;",
"-;6;6;:6::::::-::::;6:;8:66;:::6-:::=::::61=;6:6::;::6::::6::6::;Oo=:66:6>>::::,16:%6;::6;#6;6::6::-;=::;::6:=;:65:6:5-:-:;6::6:",
"oO=:6:6::-;-;-6:6:6::oO=8::6:5::;:=:6:6:6:=oOO86:6=:::6,6::;6:8OoOO;;::616:6::6:6,6;>:6:;XO*:8:5::;::::6:6:;oO=;9;6:::;:;:-:;6=o",
"O=6;85:::6:::;:6::6;OoO:;8:5::::=:::;6:;6O.O=t:8::=;:8:::::::6:oXoOtq68:>:6:>::>>8:=8::=OoO868:6::6:-;6:::;O.O8:86:6:-;-6::6:;Oo",
"O;s66:6;::=::-::6::O.O=i878::6;6::=::::6;+OO:a696:;::6::6:6:6:=oOO=iu8::6:0:6:6>:6::>6:OoO=it86:6::;::::6:O.O=iu6>::6:;:;:6::O.O",
"O=d:8::6:6:-;:6:::5OoO;du66:6:-:=:::6:6:;Xoo:d86:6O:6:6:::::6::O.OO::6:6>:>6::::>>:&85:oXOOi96:6::6:-5:6::=oOoit:6;6:;:-:=:;6.Oo",
"OO=;66:::=::6:;:6::.oXO:;6::::;::=6:=::6;XOOO=%9:6#;>:::6:6:6:6OoOo=;616:>:::6:6>6::7:6ooO*O;8::6:;:::::6;=.O=O=86::6-;:6::6:Oo.",
"ooO866:5:::=:::6:6:=oO*OO96:6:6=:;::6:6::=o.Oo:86:=;::::6:;6::6:=oO=>>6::>6:6:::6::;16:-OoOo=966::-:6:6:6:;=oOo;716:;::=:6::65Oo",
"=:66::6:-;-::6::6:6:;OO=68:6::;:-:::::6:6:6=;666::=:6:;:::::8;:6:6:6:616:6>::6::8::=6::5:==:6:6::;:;:-:6:6::==:6:6:::-;:::6:;6:=",
"6:6:;6:;:::=;-::6:;6:6616:6:::-:;:=:;6:8:6:6:6::6:-;::::;:6:6:6:6::6:6:6:>:6:,6:>6:#6:6:68:616:6:-6-:;6:6:6:66:6:6:6-;:-;-;::6:6",
":6;6:::-:;:6::::6:6:6;:6:6::=::::6::6::6:6:6;6:::;;::6:::6:::8:::6::::6,6>:6:6:68>:=8::6::5:::::;;::::::6:6;::6::6:;::6::::6:;6:",
"6:::::;;:-::-;6:6:16:6;6:::6:-;:=:-;:6::8:5:6::6::=:;:;:::::86:8:::86::8:::>::>>>:6#6:6:6:::5:::-:=:=::6::6:6;:6;:::=:-;:=:::6::",
";6:6:-:-;::;::-::6::6::::5::;:-:::;-:::::6:::;6;::=:6-::6:6:716:68::>6>:::6:>>>:6::=,:61:6::6::;:::::;6::6::6:::6::-::;:-:;-::6:",
":::;:=:::;-:-;:6:::6::6:::-:-::;:-::=:;6:::6::::::;=:;6:::::>6:9:::6:>>6:>:6:::>>::&8::6::6:::-::=:=:-:::6:::6;::-;:;:-:;:::;::;",
":;6::;:=::::;:::::6::::;6:;::;-::;:=::-::::::6::=:=::-::6:6:6:7:66>>6>::::>:>::7:6:=0::::::;:;6:-:;:::6::::6::::;::-::;:-:=:6-6:",
"6:::6-::-::=:-::6:;:6:6:=:-::-;6:-:::;::;6:6:::::>=;::66:6::>:16>>:>:6:6:6:>>6:8:::@6:5::6:4:-::;-::=:;::5::;:6:-;::=6-::;:::;::",
":66;:;6;:;6::;::=6::;::-::;::::::;::-:::::::6;-;:6&:=:8,8::6>:6>>:6>:6:2:6:6:,:6>6:;::::4::;::;-::;-::6:6::6:::=::-;::::::-6:6:5",
";::::::::-:-:-:6::6:6:6:;-::-;:=::-6;::=::6;::6::6:6:6::9:6::6::>6>>61:6:1,1616,1::->6:6:::6:-:6::::::::::::6:6::6:::::=6:;:;:::",
"6:5:5:-6:;:::::::6::6:::6::;:-:::=:::-::6:::6-::::O:;:-67:::6:6>::6>:6:6:6:6,6:6>::;:6::6::::6;-;-;::-6:6:6::::;6:=:=:=:::-::4:6",
":6:::;:;-:=:6:;6::6:::;::6:-:;:=:::::;6:;:6::::;:6=:6::1::6::>:6>616:8:6::616171>6::6::::6;:6::::::-6;:::::;6-6:::::::::;::;::;:",
"::6:-6::;:::::-:::::6:6:::6:::-:6;-:=::-6:::6::6:6#6:6:6:6::6:8>::6:6:6168:7>>6:6::=7:6:::6:;:6::6=::::6=6:::6::6;6::=6:-:=:6:6:",
";6:6;:::6::-5:6;6:6;:::6:6:6:6:;:::::-6::6::6:6::6O:6:::::6:>6>6;=O;:6:86,616:8:716$6::6:6:6:6:6;:::6::::6:6:6:6::6::::::::-::::",
":6:;:6;6:=::::::::6:66:6:;6::::::-6;::::6:6:6:616>O:6:6:6:::6:6#XoO=:8:6:8>>,:0:8::=0::6:6:66>:6:6::;-;6::6:6:6:66:6:::;6::;6:6:",
"6;6:6::6::6:6;:=:6:6::5::6:6::6-;:::6:6:5:615:6:>6=;:::6:::616:oOOO89:616>6:8>68,6:-86:6:616::6::::6:6::::6:616<6:::6:-::=:::::6",
":8:;;6;:::=::-:6::6;6;:66:6::;:::::=:::6:6:;:68:6w=:6::6:6:6:8=O.O:td86>8>626:,8:8::9:;6>:6:86:66::;-::6:6:8:5:6:66::;:;6:6;-66:",
"=O66;6:-6::5::6::6:;=Ooo:816:6:;:;6:::6::=o=oO68:9=;6:6::6::6:=oOO=wt:16>6>6:>8:76:=8:6::*O;;6<6:::6::;:::6;OO=161:6:=::::;6:6;O",
"O=;6::6::;-::;-;6:6O.OO=O96::;::-::;:6:6;OoXO=:86:O::6::::6:8>:oXo==&6616:17:6:8>::;:61=oOO=;:6:6::=::6:56;Oo=;=:68:::;:=:::6;oX",
"=:9:66:6-:;6::::6::oOo=9666;:6::;:;-:6::%.Oo:t:6:8=:8:6:6::6:6:=OoOO;168:6>61>>>>6:%6:6oOo=9e6:6:;::6:6:6:O.OO>u:6::6:=::;6;:.Oo"
};
