/* XPM */
static char *_550756591343[] = {
/* columns rows colors chars-per-pixel */
"128 128 27 1 ",
"  c black",
". c #232323",
"X c gray14",
"o c #2F2F2F",
"O c gray19",
"+ c gray20",
"@ c gray23",
"# c #3C3C3C",
"$ c #434343",
"% c #4B4B4B",
"& c #4C4C4C",
"* c gray34",
"= c #585858",
"- c #5B5B5B",
"; c #676767",
": c #686868",
"> c gray45",
", c gray50",
"< c gray56",
"1 c #9B9B9B",
"2 c gray67",
"3 c #B7B7B7",
"4 c #BBBBBB",
"5 c #C3C3C3",
"6 c LightGray",
"7 c #DFDFDF",
"8 c #EFEFEF",
/* pixels */
"ooooooooooooooooooooooooOOOOOOOOOOOOOOOOOOOOOOOOOOOOoooooooooooOOOOOOOOOOOOOOOOOoooooooooooooooooooooooooooooooooooooooooooooooo",
"********************%%.157777777777777777777777777751...@@@@o>1566666666666655552,*ooo..@$%%%%%%%%%%%%%%%%%%********************",
"********************%%1577755552525523323253553<<,2751..@@@%153222111111112111111,>*oo..#&%%%%%%%%%%%%%%%%%%********************",
"********************%%576532262212222222211133111<,2<<..@@o16311<<1<<<<<1<1<<11<1,;*@o..#$=>,,,,,,,,,,,,>>;;*%%%%%%%%%%%%%%%%%%%",
"%%%%%%%%%%**********%%57632222226<2<<11<2111,<<<<2,<<<..@@>5631<<<11<<1<<1<1<1<<,>;*@o..@$;,<<<<<<<<<<<<,,>>;;*%%%%%%%%%%%%%%%%%",
",,,,,,,,,,,,,,**%%**%%57632512<625<,1<<,12,<2<2211<>><..@@<562111<11<<1<<1<<11<2,>;*@o..@%><777777777775553322221212111<,,,,,,,,",
"3333333332211<,*@%**%%5763223<11522<<<<<,,<1<2<<21<>;>..@@<562212<<<<11<1<11<<<<,>;*@o..@%>1777777777777766555553322333333333333",
"55555555332111,;@%**%%57622222151<1<21,<<<<<<,<2<21>*;..@@<262<<<<1<11111<<<<<<<,;**@o..@%>1777766666666777777777766666666666666",
"555555555522<<>;@@%*%%5762212<121212,2<<21<<2<,<,2,>**..O#<232<<1<1<1<1<<1<<<<<<,;**@o..@%>1776655555555555555555555555555555555",
"<<<21<111122<,>*@@%*%%575522<2211<,12<<,<<221<<1<<,>**..O#><12<<1111<<<11<1<21<1,;**@o..@%>1753321212211212121<1<2<1<121<1<11111",
"<,<<<<<1<122<,>*@@$*%%575231221<23<2<,<2<,,1,211<<<>**..O#:><2<<111111<1<1111<<1,;**@o..@%>1753112111<1<12<212112<<11<1<<112<211",
"2,21,<<<<<<2<,>*@@$%%%576121<221111<2<,<1,<<,<,<<<,>**..O#=>,1<<<<111<<1<11<<11<,;%%@o..@%>17531111211<11<1<11<1<11<2111221<1222",
",<<1,1<1,112,>;*.@@%%%5762222<1<22<<1,<<,2<2<2<111<>**..+#%*;,<<<<11<1111<<<11<<,%%@@o..@%>1753112<1<211<111<112<22<111<1<<<2122",
"1,2,<<1<,<11>;*%.oO@%%5762<1122112,<,<,<<,22<<,2<<1>**..+#%=*;,<11<11111<<<<11<>*%@@@ooo@%>17533212<1<11<121111<2<<1<211<1<2<<11",
"<1,<<<<,<2<<>;*$XOO#%%576111252121<1,<<<2<<<2<<1,<2>**..+#&&**;,,<<11<<<<<<<1,>;%@@@o.oo@%>175331<<1<1<<22112<2<121<<11<1<1<1<<1",
",<,<,<,<<,<<;*%$.OOO%%5762211111112<<2,2<<<21<<2<<1>**..XO&&@%%%*;;;;;;;;;;;;*@@@@@@o.oo@%><7531221<111121221<11<<1<1,<1<,<<<1<<",
"11<<<2<2<<1,;*%$.ooo%%3662<11121<2<<<<2<1<<<2<21<1<>**..X+O&%@*@@@@@@@@@@@@@@@@@@@oo..o@$%;<7531112<21<2111<1<<121<<1<1<,<<1<<,<",
"<<<,<11<<1<>*%%@.ooo%%26612111<12<,211<,<<<11<11<2<>**o.X++#%@@@%%%%%%%%%%%@@@@ooo....o@$%*>55311<1<<211<212<<<<<<11,11,1,<<<,1,",
"<,2<2<11,,>;*%@o.ooo%%2662,21111112<1<<1<1<511<1<<<>**o.XXO#%%oooooooooooooooooo......o@%%%>5531<1<<112<111111<<<1<,<,<1,,,<,1,<",
"><>,>>>>**%%$@o..ooo%%<67221<121111<<11<1<,1<1<<<<2>**o.XXO@%%@......................o@@%*%>35311<12<1<1<<<<<<<,<,<,,<,,<><>,><;",
">;;;;;;;*%$$@o...ooo%%<3732111<1<1<1<1<1<2<<<<21152>**o...O#@@@@oooo..........oooooooo@@%*%>232<<11<<<1<11<,,>>,>,>;,>,>,>;>;>;>",
"*****%%%%$Oo.....ooO$%>3732211<1<<<<22<2<2,2122211<>**@...O#@@@@@@...........XXXXX....@@%*%;121<,,,,,,,,>>;;**********;*;*%*%%*%",
"%$$$@@@@#OOX..XXoOOO$%>1752211112<22112<2,151<115<1>**@XXX+#@@##%;::>>,,<<122577752,*@.@%*&=>1<<>>>>>>;;;;;**%%%%**%%*%*%%%%%%%%",
"oooo...XX..XoooOOO##%*%<552<<2<2<1121<322<1211211<<>**@XXX+OO@@:<688877755555533<1,>*@.o%*&%*;>>;;;;*****%%%@@@@@@@@@@oooooooooo",
".........ooooooO+O@@%*%,5631<<1<2<<<211<<12<22<1<3<>**@...OO++->688777665533333<1,>>*@.o$%%%%**===***%%%@@@##@@ooooooooooooooooo",
"oooooooooooooooo+O@@%*%;3651<<211<1<<1<3<<12<<1<<21>**@...OO++<28877665332321121<<>;%@.o@@@@$$$$$$$$$@@@##O##Ooo................",
"oooooooooooooooo++@@%*%%2651<115<<<31<<211<12<2<21<>**@...OO++16887555332532111<1,>;%@.o@@@@@@@@#@@@#OO#O#ooOooooo..............",
"@@@@@@@@@@@@@@@@##@@%*%%155322<<2<112<21<12<21<2<21>**@.XXOO++16875522322131321<,,,>%o.o@@ooooooOoooOoOOooooOo@@@@@@@@@@@@@@@@@@",
"@@@@@@@@@@@@@@@@##@@%*%%<553212<<1<2<2<21<1<<11<1<,>**%...oO+O1685552523122<<121<,,;%o.o@@O###@@@@@@####@@@@@@@@@@@@@@@@@@@@@@@@",
"*%$$@@@@@@@@@@@@##@@&=%%>353<<21<22<1<1<,,,<<<<1,<1>**%...oO+o158522<22151121<1<1,,>%o.o@@%%&&%%%%%%$$$$$$$$$$$$%%%%%%%%%%%%%%%%",
"*********%%%%%@@@#@@$&%%;253<2111<22<1,<1,,2<1<1<1<>**%...O+++148512213<2121<2<1,,>;%o.o@@%%==*****%%%&%%%%%%%%%%%%%%%%%%%%%%%%%",
"11111<<<<<,>;;;;;=#OO@%*%<351121111<1<<,<<,<,1<,<,<>**%o.XX+++<28522<1<211<<111<<>,>%o.o@@*>2221>***%%***,1111111111111111111111",
"333333333221111<>;oooO%*%,251112<1<1<<,<,,,1<,11,<1>**%o...o++<28551111<12112<1<,>>>%o.o@@>66652,***%%%*,13333333333333333333333",
"777777777776321<<:@oO+@*%;<5111151<,<,,<,<,<,<,,<,<>%*%o...o++>265221111<<1<1<,<>>,>%o.o@*2633331*%%%%%,567777777777777777777777",
"55555555445432<,>:#+O+#=*%<5<11<21,<,<,,<,<,<,,<,,<;%*%o...o++><1112121<<1<,<,<,,,>>%o.o@;2632332*%%%%%,676555555555555555555555",
"323332222121<1,>>:#+XO#=*%>3<111<<>,,,,,,,,>,>,,,,;*%*%o...o+O#=**<52<<<,,>,,,,,,,,;%o.o@;573222<*%%%%%1765333222223322333323333",
"32222222212<1<,>>;@OXO@**%;21,<<<<,,,>,,,,>,>;;;;*%%**%o...oOOO#@*%<<<<,>>,>,,>>,>;*%@.o@>572222<*@%%%%1763222222323222222322222",
"<112<<<1<22<21,>>;@OXO@%**%<1,>>>>>;;;>;;;**%%%%%%%**%@o...o++XX.@*%%%%***********%%@@.o@,77311<<*@%%%%1752212122111222111<11211",
"2<1<22122<12<1,>:=#OXO@%**%*,>;**%%%%%%%%%%%********%@oo...o+++O..@*******;;****%%@@@o.@@<7731<1<*@@%%%1753121112211<2<2112<1<11",
"<122<11121<321,>:=#OXO@%**%@@@@@@@@@@@%%%%%%%%%%%@@@oo.....o++OOoo.ooooooooooooooooooo.@@<761112<*o@%%%1632213111<<12<2<22<121<2",
"2<1<221<1221<<,>;*@OXO@%**%%@@@@@@@@@@@@@@@@@@oo..........XOooo.ooo...................o@@<762112<*o@%%%163212<121111<211<12<1<21",
"122<11121<1<31,>;*@OXO@&**%%oooooooo.............X.........Ooooooooooooooooooooooooooo$@%1751121<*o@%%%<521<212121<21<<2<<12211<",
"2<122<1122<<21,;:=#+Xo@&**%%oooooooo............XX......oooOooooooooooooooooooooooooo@@%%2731112<*o@%%%<52<1<2<1<<21<<<1112<1211",
"<<21221<221211,;==#+XoO#****%%@@...............oO@@@@@@@@@@@$$$$%%%%&&&%%;;;;;;*%$oo@@@%*5731111,*o@%%%<5212<<221<11<<<<22<<2<32",
"1212<112212<21,;*%@O.OO@%***%&##XXXXXX.........O$%%%%%%%%%%%%%%%%&157765221111,>=&OO@@%*<75211<1,*o@%%%<521111<<2<<<1<2<211212<1",
"21211<3<<1<121,;=&@O.O#@$@<237777765331,>%$$@@#&%*;><11122223355567655555553331,:&+.@@%;47521111>*o@%%%,2221<21<<2<21111212121<1",
"12<21222<111<1,;=$#O.o@@;277777777766322<>%$@@$&;3577788888666677765311112222311:&..@@%>57221121>*o@%%%,2111<2<1<<<1<2<<<212<112",
"<122<21122<1<1,;=$#O.o@@27555231131122111,*%$$%%;77888652222222222211112211115>>*%..@@*17512121<>*.o%%%;<<112212<<11<<2<2<<122<<",
"<<1<<<2<<1<1<<>*%$#+XO@@755525233<3122111>*%%$%%>886332221511122<<111511<51511>>*@..@@*17511112<>*.o%%%;;<1<1221<<111<11<<<<11<<",
",,<<<<<<<2<<<,;*$@#+XO@@72353532222211112>*$*$%%,7735222122122112<2,151<115<11>;%@..@@;182112112>*.o%%%*;;,,,,,,,,,,,,,,,,,,<<<,",
";;;;::;;;,,,>;*%$@@O.o@@725352321112<1235;%#%%%%,763521<1113<<22<2<2,2122211<1>;%@..@@;<81121122>*.o%%%@*$%;;;;;;;;;;;;;;;;;;;;;",
"%***===;;;;;*%$@@@@O.o@@723132111111<1222>@#%%%%,7532221<<21<1<1<1<2<<<<<1152<>*%@..@@;<81111211>*.o**%@o@@@%%%%%%%%%%%%%%%****%",
"%%%%=%**===%$$###OOo.O##72322221<2<<12232>@#$%%%,753211<<2<<1<<1111<,1<1<<<<21>*%@..@@;<81111121>*.o***%@oooO##@@@@@@@@@$$&&%%%%",
"%%%%&&@@###@++OOOXX.oO@@721221<<<<<<22235,@O$%%%,7531<<<<2<12<1<<1<1<511<5<<<<>*@@..@@;<8<1<21<1>*.o****%@o............ooO#+@$%%",
"$$$@##OOO+OOOOo.XOOOO@@@72222111121<1<122,##$%%%,753<11<<<22,211<,<<<11<11<2<<>*@@..@@;<822<<111>*.o*****%@o..............XOO@@@",
"....XXXXXXX.OOooOO#$$%%%7212121<<11<21213;#O@$%%,66311<<<2<<<<<<2<1<<<2<21<1<<>*@@..@@;<81111<21>*.o******%@ooooooooooo...XXX...",
"............oo@@#$%*%%%%72<11<<21<<11<211;@O##$%,66311<11<<22<<<,2,<121<<2<<2<>*@@..@@;<82111<<2>*.o********%@@@@@@@oooooo......",
"%$%%%%***;;;;;;;:;;;*$..72,221<121<<13111;$##O$%,663221<<1<<<<<<<<2<<<2<<1,<22>*o@..@@;<8<1<1122>*.o*************%%%%@@@@@@@@@@@",
"%%;;;;>><<11<<<<<<<<%%..72,<<2<<<223<2522:$#oo$%,563212<112<<<<<,<<,22<<,2<<22>*O#..@@;<8121<211>*.o***%%%%%***********%%@@@@@@@",
";;<<3377777766666622*@..72<1<<2<2<1<<2131:$+oo$&>2631<1<2<<2<<,<<<,2<2<2<111<<>*OO.X@@;<721<1121>*.o**%*;11221<>;;**%%%%%%%%%%**",
";><<3222222222222212*@..72,<<2<<<21<1<531:%@oo$&>165111<<12<<<2<,<5,<<,<,<<<,2>*OOXX@@;<7<1<1111>*.o*%;<67663221<,,>;;**%%%%%%**",
";,21<<2<<11123251111*@..82<121<1211112531>*$Oo$&>1552121<12<<2<,<2<<,1,211<<<<>*O+XO@@;<7211111<>*.o*%<676555335677777762<>*%%%*",
";,21<<<,1<<,11112111*@..82,2<2<1<11<3<121>=$#O#&;<3621<,<<1<,12<<<<<221<<1<<,<>*OO.o@@;<71<211<<>*.o%%57653535533333535332,*%@%*",
";,52<22<<<<<1211112<*@..82<,2<,,1211<2211>=$#OO#%>363115<<<<12,2<<21<<2<,<,2,,>*OO.o@@;<72<121<<>*.o%%6753535322212121<1<<,*%@%*",
";,52<<1<21,1<<112<1<*@..82,12<1<<1<22<151>=&#OO#%>26211<22<,<<2,,<<<<<<,<2<21<>*oOXo@o;<711112<<>*.o%%763533232122112<1,<,,*%@%*",
";,52<212,2<<211<<121*@..82<<<<<12<1123121:-&#OX+%;1652112<2<2<<<<<,,<1<2<<21<<>%ooXO%o;<612211<,>*.o%%75533532121212<<,,,>;*%@%%",
";,52<<,12<<,<1<3<<11*@..82<11<<21121<2211:=&+OX+%;15522112,1<,,<<,12,<2<22111>>%oo.o%o;<6<1211<,>%.@%%7532322121212<11,,>;>*%@@%",
";,53<3<2<,<2<<<211<1*@..72,<2<212<113212<:=%#OX+%;<3621121112<<11<21<2,<<<<21<>%.o.o%o;<5<11<<<>*@.@%%632332111211<1<,,,>>;*%@@%",
";,541<1<2<,<1<21<111*@..72<2111<112<2113<;=&#OOO%;>262311,1<22<,<2,11<<1<<22<,;$.o.o%o;<3<<<<<,;%..@%%232121221111,<,,>,,;>*%@@%",
";,522<<<1,<<,2<21<<<*@..721<212<21111122<:=&OO.O$*;<632211<1<,2<211,1<22<1<11,=Oo..o%o;<22<<,,;*o.@%%%12121221111<<,,,,>;>;*%@@%",
";,53<2,<,<,<<<1<,<,<*@..72<<12<2112<2<1<<;*%#OX+$%;,531322,<,,<2,<1<1<<<<1<1<-&Xo..o%o*,11,,>;*o.o@%%%<121121211<<,,,<>,>;>*%@@%",
";,5412<1,<<<21,<1,,,*@..522<1<<<<2<1<1<1<;*%OoX+$%*>232121<,1<<,2<<211<<<>-$#$++o..@%o@;>>;;**o.o@%%%%;<<111211<1,<,,>,,;>;*%@@@",
";,542<2<<2,2<<<,<<,>*@..521<1<11111211121;*%OOX+@%%;133511<<12<<22<<1>-&$$$$$$+#...@%o@%**%%@..@@%%%%%@;>,<<1<<,<>,,>,>;>;**%@@@",
";,5222<<<<2<1<,<,<>,*@..3221222122<1<1<11>*%+OX+@$%;<233211<<<,,>=&$$$$&&&===&#O...@%@@oo....o@@%%%%%%@%;;;>,,,>>,;>;;;;*;*%@@@@",
";,53<2,211<,<,<<11,>*@..3323122<2<213<<21>**#OXO@$%*><2321<<<<*$$$&&$$O+OOO++O+X..X#%%@@@@@@@%%%%%%%%%@o@%%%**************%@oo@@",
";,54112<1<<1<<3<<<,,*@..1321121232<21<211>**+OXO@$%%@*,1<<>==$#$$$++++O...XXXXXX..o#%%%%%%%%*********%@@o...oooooooooooooo..o@@@",
";,53221<<11<1<21<,1,*@..13232122112<<11<2>**Oo.oO@$$.o@****%&&$@++XXXXX...XXX...XXO#%%**%%%%**********%%@ooooooooooooooooooo@@@@",
";,5411<1<1<1<21<1<,,*@..,232111221<2<<132;**#o.oO@$%O....O@@#O..XX..XXX..XXXXX..XX+#$%%%**%%%%%%%%%%%%%%%%%@@@@@@@@@@@@@@@@@@@@@",
";,5222<<22<2<221<1>>*#..,1311211<<2123<21;**+O.oOO$%$#OXXX......XXoO++++OO++++OOOO@$%%****%%%%%%%%%%%%%%%%%%@@@@@@@@@@@@@@@@@@@%",
";,54<<22112<2,<,1<1,*#Xo*1331121111<1<<22;*=#OXOO#$%%$$#Ooooooooo#$$$$$$$$$$$$$&%%%%%%*************************************@@@%*",
";,52211211322<<11<,>*@X+=<8222232<<11<1<1;**OOXOO#$$%%%%@@@@@@@@@@%%%%%%%%%%%%%%%***********,,,,,,,,,,,,,,,,,,,,,,,,,,,,,,;%@@%*",
";,52<12<211<112<<,,>*@X+&<8322211212<1212>**#OXOOO##%%*********************************,1233335666666666666666666666655322,*@@%*",
";,52<21<<1<3<112<1>>*@.O%,83112211<<12<21>**@o..OOO@@**,,,,,,,,,,,,,,,,,,,,,,,,,,,,,,<566777777777777777777777777777765321,;@@%*",
";,54<1<31<<211<<<,>;%@oO%%83111<<<<22<21<;**@o..OOO@@*,588777777777777777777777777777777777777777777777777777777777766331<;;oo%%",
";,422<112<21<12<1,;*&XOO%%8312111<11<<212;**@o...oO#@*387777777777666666666666666666666776555555555555555555555555335552<,;;oo%%",
";,5411<2<2<21<1,<,**&XOO%%832121<<1<21<21;**@o....O#@*577766666666666666666666666665555533333233333353353523553333233321,,;*@o@%",
";,42222<1<1<,1,,1,**@.o@%%83<1<<21<2<<11<;**@o....o@@*57765555555555555555555555555333323223231232335322221212223232221<,,;*@o@%",
";,32<<22<1,<1,,1,,*%..@@%%73221<111<2<<13;**@o....o@@*56753323323253253325523235221222223232212<12121222<1<2<111212312<<,>;*@o@@",
";>12111<1<<,<<,,,>*%..@@%%73<<2<<2<2123<2;**@o....o@@*366513523323323522522523222225121325223<11112212121<21<322<2121<1<,>;*@oo@",
"%;1111<1<<,<,,,,,>*@..@$%%631<<2<1,1<1<<<>**@o....o@@*35653212212225253232332111233321521232<12121<322<1211211<<1<3121<<,>;*@oo@",
"%;1111<,<,,<,<,,>;%o.O#$%%63<2<<<,2<11<1<>**@o..XXOO@*256531221221225222222212215155121121121<1<<211<<12<22<1<3<<<2<1,<<,>;*%oo@",
"%;1111,<,<,,<,<;;*o.oO#$%%3321<<1<1211<<<>**@o..XXOO@*2565551151251121111122<1<322<2<2<32211<111<<1<3<<12<<1<<2111<1,<<,,>;*%oo@",
"%%11<<>,,,><,;**%o.oOO@$%%33<2<<12<<1<23<>**@o....oo@*1553522121512<21<1<<121211<<113<22<3212<1<31<<211<12<2<21<111<<,<<,>;*%oo@",
"%%>,,,;;;;;=***%o.ooOO@$%%112<,2,2<1<1<1,;**@o....ooo*135362611222<2115121<<<<1<3<<1<12111<1<12112<21<12<21<2<21<2<1,<,<,>;*%.o@",
"%%*;;;==%%&&$$@.ooOOOO@$%%,12<22<<<<<<,,;;**@o.....ooo,153222<2<1<2<2512<<<<11<<211111<121212<1<2<2<21<1<<11<1<,,1<<<,<,,>;*%.o@",
"%%$$###+Oo+++OOooOOO+#$$%%*,;;;;;;;;;;;;***%@o.....ooo%,1321122212<2<<<<<212<2<21<12<1<2<<121<12<1<1<,,,<<<<1,<1,<,2,<,<,>;*%.o@",
"%%$@OO+OOOOoooOooooOO#$$&&%**************%%@@o.....ooo%>,12221<1111<21<1<<21<<2<21<1<1<<212<<1122<1,<1,,2<1<1<1<1<<<<,<<,>;*%.o@",
"****&&$##+ooooOOooOOO@$$##@@@@@@@@@@@@@@@@@@@o.....ooo@%>,11211<111<<1211,<<11<1<,,31<<211<<<111<1<<,<<,<,1<,<,<<,<,,<<,,>;*%.o@",
"**%%%%&&$#OOOOOOOOOo@@$$#@oooooooooooooooooooo.....ooo@@%*;<1111<1111121,1<<<<1,<1,<<1112121<,2<1<<,<,,,1<,11,<1,<,<,1,,,>;*@.o@",
"%%%@@@@@&$$$$#++OOoo@@$$@oo.........................oo%%%%*;>>>>>>>>>>>>>,<<2<2<1<<2,<<<<2<1<1<<,<,,<,<,<,<,,<,<<,<,,<,<,>;*@.o@",
"%%@@@**>>>>>;**@##@@@@@@@ooo........................oo**%%%%************;>,<<<<1<<<<<,<<1<,<<,<,<,<,,<,<,<,,<,,<<<,,<,<,>>**o.@@",
"%@@;<1133332<,>*==%@@@@@@ooooooooooooooooooooooooooo@@**%%@@@@@@@@@@@@%%;*;>>>,,<,,>,,,>,,,,,,,>,,,,,,,,>,>,,,<,<,<,<,,>;;*%o.@@",
"%@;<567777666321,>****%@@ooooooooooooooooooooooooooo@@**%%%@ooooooooooo@*%*;>>,,<<,,,>,,>,,>,>,,,,>,,,,>,>,>,,>,,>,,,,>;;;*%..@@",
"@@,5665552235666531,>**%%@@@ooooo@@@@@@@@@@@@@@@@@@@%%**%%%%@@@ooooooooo@%%***;;>>>>>>>>>>>>>>>>>>>>>>>>>>>>>>>>>>>>;;;;;*%@oo@@",
"@@<5653222223335676521,>*%%@oooooo@@@@@@@@@@@@@@@@@@%%**%%%%%%@@@@@@@@@oo@%%********************************************%%@@oo@@",
"%@16532232222222336765531,>*************************;;;*****%%%%%%@@@@@@ooo@%%%%%%%%%%%%%%%%%%&&%%%%%%%%%%%%%%%%%%%%%@@@@@oo@@@%",
"%@16321111111111222556664211111111111111111111<,,,,,>>>>;;;*%%%%%%%%%@@@@ooooooooooo@@@@@@@@@###@@@@@@@@@@@@@@@@@@@ooooooooo@@%%",
"%@1632<<<1<311<<1222256776655555555555555555544333211111111111<,;@@%%*@@@@@ooooooooooooooooooOOOoooooooooooooooooooooooooo@@@%%%",
"%@1631<11<<21221<1<111255555555555555555555555555433444444444331,;oo@%%%@@@@@@@@@@oooooooooooooooooooooooooooooooooooooo@@@@%%%%",
"%@15312<2<21<2<<<1<3<<12232212<1223232212<12121333335577777766551,@oo@**%%@@@@@@@@@@@@@@@@@@@@@@@@@@@@@@@@@@@@@@@@@@@@@@@@%%%%%*",
"%@133<<211111<<11<<21<<23232212<12121222<1222<1111112345444444225,@@o@**%%%%&&###@@@@@@@@@@@@@@@@@@@@@@@@@@@@@@@@@@@@@@@%%%%%%**",
"%@153<21<12<1<2<2<21<111122<1<322<2<2<32211<111<<1<1<<12<<1<<2,,5;@o.@**%%;37777521,;*%$$$%%%%%%%$$%%%%%%%%%%%%%%%%%%%%%%*******",
"%@1332<21<1<1<<212<21<1<<121211<<113<2223212<1<11<<211<12<2<21,,2;@o.@**%%>7533577531,%%%%******%%%%&&&&&&&&&&&&&&&&&&&%%%******",
"%%133121112<<<121<2<<2<<111122<3<<1<12111<1<12111<21<12<21<2<2<,<*@o.o%%%%,5222257777751,;****%%%,2577777777777777777771%%%%%%**",
"%%<231111123<32<<212<2<12121<3233321521232<12121<122<1211211<<1,<*@o.o%%%%<22223233357775,;***%%,37666555555555555553332,%%%%%**",
"%%><<212211151111121121<1<<2115155121121121<1<<211<<12<22<1<1<<>,*@o..@%%%<232323323232331;;*%%,37533222333322121221122221*%%%**",
"%%*>,,<1<322<2<2112211<111<<1<22<2<2<32211<111<<1<1<<12<<1<<11<>,*@o..@%%%<233232323222221,;**,37522222212122222212222121<,*%%**",
"%*@*>;;;>>>>>;>>>>>>>;;;>>;;;;>>;;;;;;;,,,>;,,;*@**;;*;;**;******@@o..o%%%<22232323232211<,;%%,36221221222222212122221211<,*@%**",
"%%@@@%$$$$$$$$$$$$$$$$$$$$$$$$$$$$$$@@$$$$$$$$$@@@@@@@@@@@@@@@@@@@o...o%%%<<111111111111<<,;%%252121<221212112122121211<1<,*o@**",
"%%@@@ooooooooOOOoooooooooooooooooooooooo..............................o%%%*,,,,,,,,,,,,,,,;*%%1221<1<11<11<11<1<1<1<11<1<<,*o@**",
"%%$@OOooOOoOOOOOOOOOOOOOooOOOOOOooooo.................................o%%%@**;;;;;;>>>>;;;*%%%11<<<<<<<<<<<<<<<<<<<<<<<<<<>*o@**",
"**%%##@@#OOO+O+OO+OOO+OOOOOOO++Oooooooooooooooooooooooooooooooooooooooo%@@@@@%%****;;;;*%@oo@@,,,,,,,,,,,,,,,,,,,,,,,,,,,>;*o@**",
"**%%@@@@@@ooOOOO+#@@##@@++OOoOOOooooooooooooooooooooooooooooooooooooooo%@@@@@@@oooooooooooo@@@*****************************@o%**",
"*******%%$$$$$$$&&%&&&%%####@###@@@@@@@@@@@@@@@@@@@@@@@@@@@@@@@@@@@@@@@@@@@@@@@@@@@@@@@@@@@@@@*%@@oooooooooooooooooooooooooo@%**",
"********%%%%%%%%&%%%%%%%@@@@@@@@@@@@@@@@@@@@@@@@@@@@@@@@@@@@@@@@@@@@@@@@@@@@@@@@@@@@@@@@@@@@@@****@@@@@@@@@@@@@@@@@@@@@@@@@%%%**",
"@@@@@@@@@@@@@@@@#@@@@@@@@@@@@@@@@@@@@@@@@@@@@@@@@@@@@@@@@@@@@@@@@@@@@@@@@@@@@@@@@@@@@@@@@@@@@@@@@@@@@@@@@@@@@@@@@@@@@@@@@@@@@@@@",
"@@@@@@@@@@@@@@@@@@@@@@@@@@@@@@@@@@@@@@@@@@@@@@@@@@@@@@@@@@@@@@@@@@@@@@@@@@@@@@@@@@@@@@@@@@@@@@@@@@@@@@@@@@@@@@@@@@@@@@@@@@@@@@@@",
"                                                                                                                                "
};
