/* XPM */
static char *_551703568317[] = {
/* columns rows colors chars-per-pixel */
"128 128 21 1 ",
"  c #232323",
". c #2F2F2F",
"X c gray20",
"o c #373737",
"O c gray23",
"+ c #434343",
"@ c #4B4B4B",
"# c gray34",
"$ c #5B5B5B",
"% c #676767",
"& c gray45",
"* c gray50",
"= c gray56",
"- c #9B9B9B",
"; c gray67",
": c #B7B7B7",
"> c #BBBBBB",
", c #C3C3C3",
"< c LightGray",
"1 c #DFDFDF",
"2 c #EFEFEF",
/* pixels */
"................................................................................................................................",
"................................................................................................................................",
"@@+OOOOOOOOOOOOOOOOOOOOOOOOOOOOOOOOO++++++++++++++@@+++++++++++++OO++++++++@@@@@@@@#############################################",
"@@#&&&&&&&&&&&&&&&&&&&&&&&&&&&&&&&&&&%@+++Oo..+++@@##%&&%%%%%%%%%%%%%%%%%%$@@@@@@@###$%%&&&&&&&%%%%$$$$#########################",
"@#&&&&&&&&&&&&&&&&&&&&&&&&&&&&&&&&&&&&%&*%&$OX.++@##%%%%%%%%%%%%%%%%%%%%%%%$@@O+@@##%$%&&&&&&&&&%%%$$$$$$#######################",
"#%&-1222222222222222222222222211111<<<<>>;=&$o..+@#**;,222222222222222221,-&%@Oo+@##$&=;<11122221<>-==*&%$$$$###@@++++++++++++@@",
"#%%<22221<1<<<<<<,,<,,,,,,,,,>>>>>>>>>>>>;*%$@..O@%*;22222222222111111111,,=&#OXO+@$%=:<2222222211<<<<<:--=****&&&&&&&&&&&&&&&**",
"*@%,11<>,;;:;:>,;>;:;,;;:;,;:-;;:;-;><:;;*&%$@..O#%-22<,>,>;;:;<;;:-;,,::--=%$+XOO+%&:,11<<>;::::,<<<<111<<,,,,,,>::>>>:::::::::",
">&$>1<,,--;--;:;;:-;;-::,:;,--:----:---;-*%$#+..o$%,1<>:-:>;-;;:--:==---;=%%%#OXOO+%&<11<>;;------;>>,<<<111111111<<<1111<<<<<<<",
";&@:<,,-:-----=;---::;;-;;-;-:-=;=;-==;-=&*$#+..o#%1<>;-=;;-=*=-:>-=;--;;*&%$@OXOOO%&<1<>;--=;--=----;:::::::>>>>>>;:>>>>>:>>>>>",
"**@-,>:---;-;===----;---;;;=;----;=-===;==&$#+..o#%1,>;>=;==-;-*=-=;-----=&%$@OXoOO%&<<,;-;=-=--=-;-----:==--;--;--;-=;----=--;-",
"=*#*,>------=--;-----;---=-;=*;--=*-==--*=&%#+..o#%<,:---=;=*=-*--==*=-=-&%$$@OXoOO%&<<:-=--=-==;;--;=;--;-==--=------=--,=-===-",
"-*#&>:--;;=;;*-=-,-=;;;------;=-==-=-=,--**%#+..o#%<,;;;---===*;=;=;=---=&$$$@OXoOO%&<<:-;------;-;;-=---=-=-*=--===--==---;=--=",
"=*$%;:-*--==;=====*=*--=-;--====--=-=*-=-*&%$+..o#%<,;-;=-*=*===;;==*;==-&$$$@OXoOO%&1<:-;;=;-=;---=-==-;--=-=-=*---====;-=----=",
"=*##;;==-==;*====-=;;=---=-*=*-=-=-=;====-=%%+..o#%<,;;-=;====;===;=*-*--&$$$@OXoOO%&1<:---==-------==--==--*--*-=---=-==;=-;=--",
"=&$@-;=-==-*=;=-==-==;;--=-=**=;;=;=;*;-;-=%%+..o#%<,:;-;--;*;===;-==;=--&$$$@OXoOO%&1,:------=-=;--;=-==-**===-*====---=-*=--=;",
"*%@@=;-=*;====;=*-=-;=;----;=;;--;=;*-,-==*&%+..o#%<,-=;=--=;==***-*;-=-*&$$$@OXoOO%*1,>---==-;=;=;;=-;-=-=**====*-*---=*;==-=--",
"&%++-:-===*=*=*;==-==;;-;=;=--;-=:;;=-;---*%%+..o#%<,:;=*;--=****==*=-=-*&$$$@OXoOO%*1,;-;----=;--=-;=-=;=*=***===*;=;=;=---==--",
"*$o+=;==**=*==;=-=--;-=---=;===;--==-;=;;=*%%+..o#%<,;;-;=-==-==*>==*-=*=&%$$@OXoOO%*1,-;-;-=;-==;==-;;--=-*==;=*=>*==*=*===*--=",
"%@o+=;;*-=;-**==--==;---=;--=-==-=>==-;==-=%%+..o#%<,;;--==--=-=&=*=****=&%%$@OXoOO%*1,;=-==;-===---;=-;--;==;=*=;==*-*;--=-=-==",
"%@.+=;:---===-==;==-=;;=--,===:-==;--=-;=;*&%+..o#%<,>;-=-=-=-=;***=;==-*&$%$@OXoOO%*1,=;;-=--====;;==;=:;-=*-;===*=--===-==**=*",
"#@.+*;;-*=-=*-;-*;-==;---==;=--;=;-=-;=;---%%+..o#%<>;====;;=;=;*;-;;-===&$$$@OXoOO%*1,===;-==-=;=;--;--=-=--;*-==-=***&%%%&%%%&",
"+o.+*->-=:-;;--;=----=-=-;==-=;=;=;-=-==---%%+..o#%<>-;=;;--;=;*-,-=--:=**$$$@OXoOO%*1,;--=;=;--==-===-=*=**==-=*&&&%%%%$%%%%%$$",
"O .O**;--;-;-:-=;--==;=-=;-=;;=-=-=***=====%%+..o#%<,;=--;-=:;;=-;--;--*=%$$#@oXoOO%*1,:=-=====-**&*&*&&%&&%&%%%%$$$$%%$$##@@@@@",
". .+&&==*=;--------;--;--;--=;;=-*=-**;=-==%%+..o#%<,>;---;--==-;=;;=-=--&%$#@oXoOO%*1,:--===-*&&%%%%%$%%%%%%%%%$$$$$$$#@@@@+Ooo",
"  .+%&**&&*&**&*&****=---;------==*==&=*--=%%+..X#%<,;-=-==-=:==-;==-==-=%%##@X.oOO%*1,:*=*&&%%$%%$$$$$#########@@@@@@@@+Oo.    ",
"  XO#%&%&&&%%&%%%&&&*&**=;--=--==*=*&=-***&%#O...#%,,,--->-==;--=-;=;=--=%%##@X.oOO%*1,;*&%%%%$$$$$$$######@@@@@+OOOoXX...      ",
"...o+#%#@@@@###$$%$%%%%%%&&*&&%&%%&%&%&%%%%%@X...#%,>-;=--;=;-=-;=;-=;-;=%%##@X.oOO%*1;=%%%$#@@@@@@@@@@@@@@+OOOO.....          .",
"o..XXO++ooO+@@@@@#$$$$$%%%%&&%%%%%%%%%%%%%$@OX ..#%,>---=;--=;--;-=--=-==%%##@X.oOO@&:=%%$#@+OOOoXXXXXXXXXX.......     ....X.XXX",
"oo..      .XoOO+@@@@@@@@@@++++@@@@@@@@++@@+oX  ..#&,>>---====;----===-*=*%%##@X.oOO+#*%#@@+OX..XX                   ......XoOOOO",
"+OX.        .....XXXXXXXXXXXXXXXXXXXXXXXX..X   ..#&,>;------=-=--;=-=--=*%$##@X.oOO++$oXXX....                .........XOO++@@##",
"@@+O..           .................XXXX.....   . .#&>>:;--=--=;-;=-*--==*&%$##@..oOOOOOO..........................XooOOOO+@######",
"=*%#+OOoX.                                   ...X$&>>:--;-==--=;-;==---*&%$#@+..oOO+++OOOOOOOOOOooooooooooOOOO++++++++@######$%*",
":;-=*%$#@OOOOO.                            .....o$&>>;-=-;-==->---=---==%%$#@+..oOO++@@+++++@@#$%%%&&&&&&&%%@+++++@@######&==--:",
"1<,>;;-=*%$$#@+OoXXXXXX......   ..         ...XXo$&:>;;===;;:=;>--;**--*&%$#@+..oO+++@@@+++#$$$%&&&&&&&&&&&&%@+++@####%*=-;><<<1",
",,1111<>:;-=*&%$#@@@@@@@+++++OoooO@++OOOO......Xo$&:>;-;=;*-==;--;=*=*=*%%$#@+..o+++@@@#%%%%%&=;<222211<<>::*$OO+@##%*=;><<111<,",
":;,,<11121<>:---=&&&%%%%%%$%%%$###&**%%$$OO....Xo$&:>>:===;-=-=:;=*=**=*%%##@+..o+++@@#%%&&*-:,2211<1,,,<<>-&%Oo+#$&=;>111<<,>>>",
":;:>,,,112222221<,>>>>>>>>>>>>>>>>>>>>-==$+....Xo$&:>::=-;----;:;==-*=**%$##@O..o++@@&&-:122<<>::;:;;;:;;;-*%@OXO$%=;,<11,>>;::;",
"=--::>:>,,<112222222222222222222222222,:=&$+...Xo$&:>;;-----=:=----&;-=&$$#@+X..oO+@$&-<21>:;--:;;:------;=&%@OXO$%;,<1,,>:;-;--",
";=--;;:>;-;>,,,,,<<1111111111<,1<1>;:;--%$$+. ..o$&:>;-==-;--=;--======*%##@O...oO+#%-12,;--;;--=;-;--;=-==&%@oXO%&>,1,>::>;;;;-",
"=-;;;-;;-:--;:>,,-:-:::::;:;--;;----;--*%$#@X ..X$&;>;=-=--=;;=--=;;===%&##@O...oO+%&<2,::---=--;=;=;;=-;--*%@oXO%*><<>:::-:;;--",
";=-=-;;---;:-;;=;=;->>::;---;---;>---;=&%##@X ..X$&:>;-=-;=--;:--=====-&%##@O...oO+&&2<;;=-;----=;--=-;=-=-&%@oXO%*><,::;;:;:;;;",
"-;;=;-;;-=;;-;---:=;;->;-;=-->---:----;&&##@X . X$&:>--=;--;-=;;-;=====%%##@O...oO+&*1<-;-;-;-=;-==;==-;;-=&%@oXO%*><,:;;;---;;;",
";=-;-;=--;;-:----=-;-------;--;=;--;;=-&%##@X . X$&;>:::-;---:;-==-==*=%%##@O...oO+%*<<:=;=--=;-===---;=-;=&%+X.O%*><,:--;;--=;=",
"==;-;--=:=-;-;;----=-;-;-;=--;=;=;---==&%##@X . X$&:>,-----;=;----*==;*%%##@o...oO+%*,<--=;;----====;;==;=;*%+..O%*><,>---==-;=;",
"-;-;=;-;;;---;-;--;-=-=---;-;=;=-=-=;-=&%##@X ..X$&:>:;;-;--------*=;=*%%##@....o++%*:<;--==;===-=;=;--;-;*&%+..o%*,<>--:----=;-",
";-;-;-=----;--;=;=-=;-;-;-=-;;:-;=-;--=&%##@X  .X$&:>-;=;--;=;==*=*&---%%##@X...O++$&->;---==;=;----;-;-;-=&%+...%*<<:;;-;-=;-==",
"-;=;-------;--==--*=-;-==;=--=;;;--:-;=&%##@X  ..#&:>>====;=-=-==*=-;*;%%##@X...O++#%-:;-;====*-=;===---*==*%+. .%*<<:;=-==;-==-",
"=-;;;:-;=--===;===*---;-;==-;;-;--;-;;-&&##@X.  .#&;>:=-----;----***=;*%%##@X ..O+@#$=;;-;=--==--=-=;*=---*&%+. .%*,<:;;;-=--===",
"==--:;;;--;=-;=;-;=====--;==;;;---=--=-&%##@X.  .#&;>;;;-;;==*-==;=;=-*%%##@X ..O++@$&*:=-=*--==-==--======%%+. .%*,<:;==;===-=-",
"**=-;;---;--;===;=;;=-;-----;---==-=*=-%%##@X.  .#&;:-;;=;*;-:*=;*-=**=%%##@X ..O++@#&=;===-;*-*=-=*=-*****%%+. .%*,<:--=*;=;==*",
"%%&*****===--=-==;=--========;*-=-=***-%%##@o.  .#&;>>;-;:;=;=*;---;===%%##@X ..O+++@&&;-=*=-;*****&&&%&*&&%#+. .%*,,:;*=****&&%",
"@#$%%%%%%&&********=*=*===;---*--=*-=&&%$##@o.  .#&;>;-;;--;**--*-=;;=*%%##@X ..O++++%&;-;-;-***&%%&&%&%%&%#@O. .%*,;-*&&&%%%%$@",
"@@@@#$#$$$$%%%&%%&%%&%&%%%&&**%%&&&&%&%%###@o.  .#&;>;;-;;-=;*=--=-=*;=&%##@. ..O++++%%-=&*&%%%%$%$@@#@@@@@@O.. X%*:-*%$%$####@@",
"@@@@@@@@##$$%%%%%%%%%%%%%%%%%%&&%%%%%%$$##@+o.  .#&;>;;--==;-;:=;*=**==$%##@. ..O@+@++%&%&&&%%%%$@+++++OOOOO..  .o***%$$####@@@@",
"++@@@@@@@@@@@@@@@@@@@@@@@@@@@@@@@@@@@@@@#@+oX.  .$&;:--;----=-*=-=*-===%%##@. ..O@@@+++$@++++++++OoXXXXXX....   .o+%%$@+++++++OO",
" ..XXXXXXXO+OOOOOOOOOOOOOOOOOOOOOOOOOOOO++oXX.  .$&;>;-;:;==--=--===-=*%%##@. ..O@@@+OO..XXXXXXXXXXXXXX.         ..oX.X......   ",
"          XX..XXXXXXXXXXXXXXXXXXXXXXXXXXXXXX.   .$&;>>;;--;-;=--====--*%%#@+X ..O@@@@O...                                       ",
"OX.         ..........................XXXXX.    .$&;>:-;;--==-;===-====%%#@+X ..O@@@@Oo.       ..........     ..            ...O",
"OOOOoX....                                      .$&;>>--====;;=-===-=--%$#@O. ..O@@@@+OXXXXXXX..        .XXXXXX...............+@",
"@@++Oo..........                                .$&->;;------==-=====*%%##@O. ..O@@##@+++OOOOOOOOooooooOOOOOOOOOOooooOOOo.XXXX##",
"###@@+OX..     ..........................     ...$*;:=-;-==-=;-==**==%$$#@+X. ..O@@#@@##$%%%%%%%%%%%%&&&%&&&&&&&&&&&&&%%OOX.X+@#",
"#####@+OoX................................   ...O%*;:--==;-=;==-=*&&%$$##@O.  .XO@@###$$%%%&&&&&&&&&&&&&&&&&&&&&&&&&&&&&%OOXX+@#",
"######$%%$%%%%%%%$%%%%%%%%%%%%%%%%%%%%%%oX. ..oO@%*;>;;-=---=;***&%%%$#@+OX.  .o+@@##$$&=;><<<<11111111111111111111111<<-&O..o@#",
"#####$%%%%%%%%%%%%%%%%%%%%%%%%%%%%%%%%%%%o. ..O@@%*->;-;==;=;--=%%%$##@OX..   .o+@@##%&=:<11111111111222111111111111<,:-*&o...@#",
"####$&=-->,,,,,,,,,,,,,>>>>>>>>>>>>>,,,;*%X .O+@@%*->;-=;=-*-=*&$$##@@oX.    .X+@@@#%%*;<11<,>::=;-:;,::>;-;-;::;:::;-=&%#o...@@",
"#@@##=;,111111111111111222111111111221<:=%. .O@@@%*->;;===*;==*%$#@@+o.     .XO@@@@#%%-,1<,>:>>:;->;-:>:--;-;-->;;---*&%%+X...@@",
"#@@##-<11<>::::>,::::>>>>>::::::::::>;=&&#o .O@@@%*->--==-=--=&$#@@+o.    ...O+@@@@#$*:<1<:;,-,,-;--;;:;-=-==;-;=--;=*&%#OX  .O@",
"#@+#$;1<>:-:;;;--:;---;--;;;=-=-=--=-=&$$+X .O@@@%&->--==--=**%#@@+o.   ..XOO++@@@@$%-,<<>=:;;=;*;=:;;--=---==-=:=---&%#+oX  .+@",
"#@O$%><,;;::-:----:----;;-;-:;-;-==-*&%$@O. .O@@@%&->;---*-==&%@@+o.  ..X+%&&&%@@++%%;,<<:--==--:=;;=>;-;=-=:-=-;--==*%@OXX  .O@",
"@@O%%,<:--=;-==---=;==---;:-==;--==**&$#@O. .o@@@%&->;--=-==*%%@+oX  ..+%%&&&&&$@++%%><<>:-=:-=-=-;---=-=-;--;=;-=--**%@OXX  .+@",
"@@O%%<<;---;=--*=-;=----;----==;=-==*&%@@O. .o@@@%&->;-=-**=*%%@O.. .O$$*->111>%$OO%%,<<;--=;-----=-;-;-;=-=;=;=;-=-=&%@OXX  .+@",
"@@O%%<<:-;;*;-;-**-=--==;--;=-;=-=-=*%%@+.  .o@@@%&->;;-**=*&%%@O.   $$->111,:-%$OO%&<<>-:-;-=-;=-=;==-;-=-;=-=--====&&@OXX  .+@",
"@+O%%<<:=--;-;=---==;==-=;;==:-;=;=-&%%@O.  .o@@@%&->;----*%&%$@O. .O$-<1,:::-=%$+O%%<<--=;=;-=-=-==;-;==--;;-===;==-&&@OXX  .+@",
"@+O%%<<:-;--=---==;-=;-=-;-;-=-=;;--=%%@O.  .o@@@%&->;-==*&&%$#+X   $*>1;--:;-*$#+O%%<<---=-=**:---;---=---;-;-=;-=:-*%@OXX  .+@",
"@@O%%<,;---;-;--;-;-:;--------=--==--&%@O.  .o@@@%&->;-*-*&%$$@O.  .*-<:-;--==%$@OO%%<<;---*;-=-;--;:-;-=:;;=-;--;---&%@OXX  .+@",
"#@O%%<--==--;;=-=:;;=-=;=;;---=---===%%@O.  .O@@@%&->;--*&%$$#+X.  o=:<;;-;--*%@+OO$%<<::;----;--;----=;--==-;=;:=--:&%@OXX  .+@",
"#@O%%;****-*-;-;=-==--:=;;=:;-;=-=:-=%%@O.  .O@@@%&->--=*&%%$@O.  .#=,,-;-====+OOoO$%<<:-;=;=:;;--=---=--->==-;==-==;&&@OXX  .+@",
"#@+$%-&&%&****==-=:==-=-;---=-=-;--;=&%@O.  .O@@@%&->--==&%$$@O.  X#:<;-:;=-**@OXXX$%<<:--:=;;=:;-;=-=:-==;--=-;=;=;-&&@OXX  .+@",
"#@++$%%$$$&&&&====------=-;-;-;=-=-*=%$@O.  .O@@@%&->;-=*%$$#@O. .#-,,:-===-*&O.XXX$%<<;-;=-;---=-=-;--;-;-=-;=;-=;=;*%@OXX  .+@",
"#@+++%$$$$$$%&*-*=-*-*=-=*==------&=%%#@O.  .O@@@%&->;;=%$$##+o. X$;,:-;=-=**%X.XXX$%<<;----=-;-;-;=-=;=;-;-=-==--=--%%@OXX  .+@",
"#@++++@++OO+$$%%&*&*%*&&&*&*&*&&&*&&%$@+O.  .O@@@%&-:;*%%$##@O.  o&:,>-=;-**&$X.XXo$%<<;;:--=;==-;-=-;=-=-=***====-*=&%@+XX  .+@",
"#@@+OoooX..X++$%&%%%%%%%%%&&%%&%%%%$##@OX.  .O@@@%&-;-&%$###+o.  O&:<-;;-==-&@X.XXo$%<<;;----=;-;==--;;=-*=-**;=-=-=-&%@+XX  .+@",
"##@+OooX..  XO+@@@@@@@@@@@@@@#@@@@@@@@+O.   .O@@@%&-;*%$###@OX   +&>>--;==;&%+..ooo$%<<;=>-==;--===---=-==*==*=*-=*=*&%@OXX  .+@",
"##@@@@+o..   .XOOOOOOOOOOOOOOOOOOOOO+Oo..  ..O@@@%&--&%###@OX.   @$>;;=--*-*%+..ooo$%<<;=-----;-;-=*;=-==*=***-=*--*-*%@OXX  .+@",
"######@@+X.   ....................XXXXX.   ..O@@@%&-*$##@+OXX   .#$,>-==---%&+..ooo$%<<-=;*=-==;=-=-==*=**=*=*=******&%@OXX  .+@",
"########@+X.    ......................     ..O@@@@&*$$++OX...  .o+$==-=;***&%+..ooo$%<<-*-=*==-****&***&************&%$@OXX  .O@",
"########@@+X.                             ...O+@@@#$@+OXXX.    .++#%$$$**&%%@+..ooO$%<<--***&%%%%%%%%%%%%%%%%%%%%%%%%%#@+XX  .O@",
"#######@@@++.................................OO+++++o....     .X+++@#$+++#%@@X..ooO%%<>=-*&%%%%%%%%%%%%%%%%%%%%%%%%%$##++XX  .O+",
"###@@@@@@+@++ooX............................oOOOoX.....     ..X++++....XXXO+XX..oOO%%<:=*&%%#@@@@@@@@@@@@@@@@@@@@@@@@@++oXX  .O+",
"###@@++++++++++++++++++++++++++++++++@+@+OOOOOOX. .       ...oO+++Oo..    .XX...OOO+%--*&%%#++++++++++++++++++++++++OOOoXX   .O+",
"###$$$$$%%%%%%$$##@@+++++++@@@@@@####@@@@+OOOOoX.. ........XoOOO+OOOo....      .OOOO@%*&%#+OoXXXXXXXXXXXXXXXXXXXXXXXXXXXXX   .O+",
"##$$$$$%%%%%%%%$$###@++++@@@@@@#######@@@@+OOOoXX.........XoOOOOOOOOOOX.. ..  ..OOOOO@O..XXXXXXXXXXXXXXXXXXXXXXXXXXXXXX.    .XO+",
"@$%=;;;;;;;;;--=*&&&&&&%%%$$#@########@@@#%%%%%%%%%%%%%%%%%%%%%$$####+OXXXX....++Ooo..X                                    ..OO+",
"@%%;,<<<<<<<<<,>;-***&&&&%%%$$#@@@###@@@%%%%%%%%%%%%%%%%%%%%%%%%%%%%%##+ooXoOOO+++oX...                                   ..ooO+",
"+%%;<111111111111<<<<<<<,>;=*%$$@@@@@@@#%-,,,,,,,,,,,,,,<<<<<<<<>-=*&%$%%%$##@++++ooooX..                                ..Xo+O+",
"+%%;<111<,,,,,,,,,,,,,<<<<<,;-*%#@+@+++%%,11<<,,,,,<<<,,,>>,,,,<<<,>;-*&%%%$###+++oooOOoX.................................XoO+O+",
"+%%;<11<,;>----;-;::::;:-;:::;-%%@OoOOO%%,1,>:;::;,;,,;:;-:;;:;;:::,,,,,<<>-*%$$++oOOOOOOoX.............................XoooOOO+",
"+%%;<1<>;;-;---=--;;;;--=:-=-*&$$@ooooO%%<<:;::-->;:-:-;->;;-;------;:>>>>>>;=*%%#+OOOOOOO+@@+++OoooooooooooOOooooooooooOOOO+Oo@",
"+%%;<<>;===---:=-;--:;=;=;;-==%%$@oXooO%%<>-;:->;-=;;;>=;;=>;-;=-=:-=-:;;;;;;;-=*%%#OOOOO+@@@##$$$$$$$$$$$$$%%$$$$$$$$$$$$$$+Oo@",
"+%%;<,;-*=;===;---::--;=;*-*-&%%$@ooooO%%,:--;--;=>=-;=-;---=-=-;--;-;-=;;;;-;-==-*$+O..X+@@##$$$$$$$$$$$$$%%%%$$$$$$$$$$$$$$Oo+",
"+%%;<;;;=-=-=;-----;--:;;==--&%$$@oXooO%%,:--=--==;-----=-;-;-;=--;=;=;-;;-----=-=*%$O...O@##%%*---------------------------=%#X@",
"+%%;,;=-*===;=;-=-;=;--=--;*=&%$#+X.ooO%&,:;;;=;=;-=-;--=-=--;---;=-=-====------=-&$$+...o@#$%*-:,,,,,>>>>>,,,,,>>>>>,>>>>;=%+X@",
"+%%;,;--=====-=*=--==-=:=---*&%$@O..ooO%&,:----=;-;;-;-==---;-=;-;-=;-=:;;=;--=-**%$#@X .o+$%*-;,1<,;::::;;;:::>>>:--::::;-*%+o@",
"+%%:,:-=-==;-*=-*-=:-==;--===%$#+...oOO%&,:;----;;=--;=-;-;-=:;;=-;--;--=--=:---*&%$#@X .o+%%-;,1<:;---------;;:--=;=---;-=&%+XO",
"+%%:,::-;=;===*=-=--;=;-=-;**%$@O...OO@%*,:-;;-;--;--;-=-==;--==-;=;;=-=:=--;===*%%##@X .X+%%-><<,;;:-----;;-;-;-=;--:;;=;=&%+XO",
"+%%:,:>=-;=-=*=*-==;=;=;-=-*&$$@O. .O+#$=,:;=;=;=:;;--=---==-=:==-;==-==;-----*=-%%##@X .XO%%-><>:>;=-;-;==:;;--;--;--==-=-&%+X+",
"+%%:,::--=*=*==----=-=-=*-&&&$$@OX .O@#$=,>;--:=;;=:;-;=-=:-==;----;=;=;-----==**%%##@X .XO%%-><;--;---==;--==-;=;;=-=:===-&%+O+",
"+%%:,:--==-==>=-==;;=-*=-**=%$$@o. .O@#%=,>;--=-;---=-=-;--;*--=-;=;-=;=;-=;=-=*&%$##+X .XO%%->>-;--=----=-=:==-;==-==;---=&%+O+",
"+%%:,;-=--=-=;-=*--=-==*==&&%$$@X  .O#$*;,>;----*-;-;-;=-=;*;*;-=-==--=-=**-===*%%##@O. .oO$%->;-:;-;--=:-==;--=-;=;=;-=---&%+O+",
"+%%:,;-;---=--=-===-==*=**=&%$$@X   O#$=:<>;-;=-*;==-;-=-;=-*==***====-*=-*=*;&&$$##+X .XO+$%->---=-=-;--;=;-=-;=;-=;=;-=;=&%+O@",
"+%%:,;-;-;;-=-==-*=*=**=*=*&%$$+X ..O$%=:<:-=-=-==;-;==--;;=-*=-**;=-=-=-=-===*%%##@+. .oO+%%->:-=-=-*-=;=;*;-=-=*=-=-=*=;*%$+O@",
"+%%;,;:-=;===-*;*==-======*&$$#+X .XO$%-,<:-*:-==;--===--==-==*==*=*-=*=*==*=*-&%##@+. .o++%%-:;*==-=*=-==--*****=*=-*=-==%$$+O@",
"+%%;,-----=--*=;-=*---=====&$$@OX .XO$%><<:--==---;-;-=*;*-==*=***--*--*=-*-*=;&%##@O. .o++%%-;*=**&&****&*&&*&&=&*&*&*&*&$$#@O@",
"+%%;,-;--=;=;=;-=--=--===*=&%#@OX ..X$%,1,;-=-*=-==;===-******=*-=-=-**-=-=*==*%$##@O. .O+@%%-*&&%%%%%%%%%%%%%%%%%%%%%%%%$$$#+O@",
"+%%;,;-=-==;-;=;-====----==%%@@OX ..X%%,,;==&%%%%&&&%%%%%%%%%%%&%&%&%%&%%&&%%%%$###@O. .++@%%*%%$%%%%%%%%%%%%%%%%%%%%%%%$$$#@oO@",
"+%%;,:;===-;-=;==;==----;-=&%@+X  ..o%%,;=&%$%%%%%%%%%%%%%%%%%%%%%%%%%%%%%%%%%$####+X  .+@@@%%$$$$$$$$$$$$$$$$$$$$$$$$$$$##@+XX@",
"+%%;,::;=:;*=;-;=;=-;---=-=&%@OX  .XO%%:=&%%$#####################################@OX  .++@@#$@@+++++++++++++++++++++++@@@+oXX.@",
"+%%;,:-=;*-=---==-==-==-=**$#@OX .XoOO%*&%%######################################@+X   .O++OOXXXX.......XXXXXXXXXXXXXXXXXXX.  .@",
"@%%;>;=*&*&**&***********&$$#@OX .oOO++%%#@@@++++++++++++++++++++++++++++++++++++oX.  .XOOOo...                               .@",
"@$%-;=&%%$%%$$&&&&&&&*&&&$$#@+OX .OOOOoo.X..........XXXXXXXXXXXXXXXXXXXXXXXXXXX...    .O+++o...                               O@",
"@@$***&$$$$$$$$$$$$$$$$$$#@@+OXX .+++OX                                              ..O@@@Oo.................................O@",
"#@#$*$$#####@@+OOOOOOOOOOOOOoXX  .++++.                                              X.O####+O...............................X+@",
"#@@@#@+OOOOOOo................   .++@+OXX.                                           XO@#####@@+++++++++++OOOOOOOOOOOOOOOOOOO+@#",
"#@+.XXXXX.....                  ..O@@+OO.XXXXXXXXXXXXXXXXXXXXXXXXXXXXXXXXXXXXXXXXXXXXoO@#######@@@@@@@@@@@@@@@@@@@@@@@@@@@@@####",
"#@OX.          ...................oO+OOOoo.....................................X....ooO+@#######################################",
"OOOOOOOOOOOOOOOOOOOOOOOOOOOOOOOOOOOOOOOOOOOOOOOOOOOOOOOOOOOOOOOOOOOOOOOOOOOOOOOOOOOOOOOOOOOOOOOOOOOOOOOOOOOOOOOOOOOOOOOOOOOOOOOO",
"OOOOOOOOOOOOOOOOOOOOOOOOOOOOOOOOOOOOOOOOOOOOOOOOOOOOOOOOOOOOOOOOOOOOOOOOOOOOOOOOOOOOOOOOOOOOOOOOOOOOOOOOOOOOOOOOOOOOOOOOOOOOOOOO"
};
