/* XPM */
static char *_551703573857[] = {
/* columns rows colors chars-per-pixel */
"128 128 22 1 ",
"  c black",
". c #232323",
"X c #2F2F2F",
"o c gray20",
"O c #373737",
"+ c gray23",
"@ c #434343",
"# c #4B4B4B",
"$ c gray34",
"% c #5B5B5B",
"& c #676767",
"* c gray45",
"= c gray50",
"- c gray56",
"; c #9B9B9B",
": c gray67",
"> c #B7B7B7",
", c #BBBBBB",
"< c #C3C3C3",
"1 c LightGray",
"2 c #DFDFDF",
"3 c #EFEFEF",
/* pixels */
"XXXXXXXXXXXXXXXXXXXXXXXXXXXXXXXXXXXXXXXXXXXXXXXXXXXXXXXXXXXXXXXXXXXXXXXXXXXXXXXXXXXXXXXXXXXXXXXXXXXXXXXXXXXXXXXXXXXXXXXXXXXXXXXX",
"$$$$$$$$%$$##%*:<<<<<<1111222222222222222222222222222111111<<<<,<,,,;*#OOO++@###############################$$$$$$$$$$$$$$$$$$$$",
"$$$$$$$$$###$&;<3333322223221<<:<:<<:>>:>:<><<>-;;1<>><,,>>,<><<,<132=%OOO@#$%%%$$$$########################$$$$$$$$$$$$$$$$$$$$",
"####$$$$$###%*>3321<>,><<::>;<::;::::::::;;;>>;;;:,>;;;:;,;;:>;;;;::>>=@OO#%**==========================**&&$###################",
"#######@@@@#&=<21>::::;;:=;-;;::1-:--;;-:;;;=---;>::;::;;:;;:;;;:;;;;==$O@&*=;::>,,>>::;;;;-------------==**&&$#################",
"======*&$@@#&=>11,::<:;:;;;-;:-1:<-=;--=;:=-:-::;:;:-:::;;-;:-;-;;;;-;=&o#&=:12222222222222222222222222<<<>>::::;:;:;;;-========",
">>>:;:=*$+O#&-:11<:;;;;;;:;;>-;;,::-;;;;---;-:;;:;;--;>-;--;;;:;;---;-*&O%*;<122222222222222222222222222211<<<<<>>::>>>>>>>>>>>>",
"12211,,-&+O@&-:11>:;::;;:;;-;:;>;;;;::-;;;;-;-;;;-;--;-;>-:--;----;-;=*&O&*>1221111111111111111111111111222222222211111111111112",
"<,,:;-*=&+O#&-:11>:::;:;;-:;:;;;;;;;-:-;>;;;;-;:-;-=:-;;;:-=;--;;-;;;-=&@&*,112<,>,,>,>><,,,<,,,,,,,,<<<<<<<<<<<<<<<<<<<<<<<<<<<",
":::;=-=*&#+#%=:1<>::;:;;::--;;:;:;:;;;;;:-::-;;=-=---=;=-=:--;--;;;;-;*&@&*,11<,:;;::;;;;;:::::;:::::;:;:;:;:;-;-:-;-;:;-;-;;;;;",
";:--==;*%@+#%-:<,>:;;;;;;>;;>>;:-;<;-:<:-:;---:-;--==;=--:-;-;;;;;;;--=&#&*<11,:;;:=;---;;>:--;-;:;;;;;;;:-:;:;;:--;;-;--;;:-:;;",
":;-:*;=*$#+@%-:,>;:;;=;;;>-;-:---;;=-=;;:;-:;=====-;-:;=---;;--;--;;;;*&@&*<11,:;;=-:-;-;;--::--;;;;;;-;;-;-;;-;-;;-:;;;::;-;:::",
"----;==&@@+@%-;:>;:;;:=-;;-=:=----;-::=-;-;;;==--;--;--;;--:------;;:-*#o&*<11,::;---:-=;;;:-:-:;:-;-:;;-;;;-;;:-::-;;;-;---:;::",
"=:;;=&*$@++@$=-;;;;;;;=-::;;--;=;=-;=-;:--;-:;;--=;-;-=-;:;-:;-;;;;;-=$+X%*,21,:;=-=-=:--;--:>;;;;:-;-;;-;:;;;;-:--;-:;;-;-:--;;",
":--===&#++++#&===**=====-;:;;---=*===;--=---;--=***=-------=-----;--*&+OX@&:21<:-;=--:-;;;;:;-;:;--;-;--::;;:-:-;:;--;;-;-;-;--;",
";==-=*&@++++@$&&&&&&**&&******&&*&&&&***&&&****&&&&&&&&&&&&********&#+XXXX#-11<,-:;==--;;--:;;:-::;-;;;;:;::;-;;--;-;=-;-=---;--",
"=-==*&$@++++@@$$%%%%%%%&&&&&%%%%%%%%%%%%%%%%%%%%%%%$$$$$$$%%%%%&%%#+OXXXXX#&<11<:;--;--:--;-::--;;:-:;-:;;;-;--;:;--;-;-=--;--=-",
"==-=%%@+X+++@@@@##########################################@#####@+OoX..XXX#*,11,-;-=-:-=:;--:;-;;-;--:;;-:;:------;;=;;=;=---=;=",
"-=*%$@++.O++@+O+++++++++++++++++++++++++++++++++OOOOOOOOOOOOOOOOooX...XXX+$=<1<>>;::;;:-;;;--;---;--;;:-;;;;;;---;-=-=-;===-=;=-",
"=*%#@++X.O@@@+O....XXXXXXXXXXXXXXXXXXX....XXXXXXXoooooooooooooooooXXXXXXO+$=,,,;:;:;:;-:;;-=:-:;;;-;-;-;-------=-=-==-==-*-*=*-&",
"&$#++XX..O@@@@++Oooooooooooooooooooooo@@@@$&&&*==-;::::::::::::::::::;%#@@$*,:>;--=----;----;;--:=---=;-;;-==**=*=*&=*=*=*&*&*&*",
"@++XX....+@@@@@@@+++@@@#&&&&&&&&&&&&&&&&&&*&*===-::::::>>>>>>>>>>>>:::;&%@$*;:::----;---=-**===-=*==*===**&&$$$$$$$$$$&$&$#$##$#",
"+X.......+@##$$######$$&*************=---;:::,<<<<<<,<<,,,,<<<<<<<<<<2<;&@#*;;;=***==**=******&&***&*&&&&&&$$####$$##$#$########",
"X.......X+##$$$$$$$$$&*><111111122222333222222211<<<<<<,,,,<<<<<<<<12221*#O$*===&&*&&%%%%$$$$%%%$$$$$%%$$###++++++++++XXXXXXXXXX",
"........X+#$$$$$$$%&*;<233333333333322221211111,,>>::;>;,:>>;:>:>,<<11<,-$o@&&%&%&%$####################+++++++XXXXXXXXXXXXXXXXX",
".......XX+#$$$$$$&%*=<331<<<<<<<<<<<<<<<<<<,,,,>>:;;>:;;;-;>;:>:;><<<<,;=$ooO###$$#@++++++++++++++++++++++OOOOXX................",
"XXXXXXXX++@#$$$$$&%=:31>;:>;>::>-;:::;;;,;-:;::>;-:;;----;;;:;;:;;<,,<>;=$X..OOO+++++++++++++++++++++OOOOOXXXXXXXX..............",
"++++++++++@#$$$$$&%=<3>>;;>>;-;-;:-:->:;:;;:;;:::>-;;;;;;;<;:;:;-;:<::>;=@X....XXXXXXXXXXXXXXXXXXXXXXXXXXXXXXX++++++++++++++++++",
"+++++++++@@@#$$$$$%=,3>;:-;-:;;;--:>;--:::;-;>:;:::;;:;;-=;;:;;;;;:,:<:;=@X.XoO+O+OOOo...XXXOOOOOOOOOOO+++++++++++++++++++++++++",
"##############$$$$$=,2=;;;;:-;-;;:;-;;--:;;;;;:;;;;;;;:-:;;;-:;;>:::-::-=@oXO+++++++++Oooooo+@$%$$$$$$$$$$$$$$$$$$$$$$$$$$$$$$$$",
"#%&&&*=***%$$#$$$$$*>1;:;;--;;;--:;;:-;:-;;;;;:;;-;::;>-:=:;:::;::;::;>-=@oO++@@#@@@+++++++@%%&&&%%$$$$%%%%%%$$$$$$$$$$$$$$$$$$$",
";---=---=--%$###$#$&:1,;--;--:--;-::-->;:;:;;;;>;::;;:->=;<;-;;>::::-;-;=+o+@#%&&&$#@@+++@#%&=;,<>:;;;--====-;;;;;;;;;;;;;;;;;;;",
">,<,>,,,<<<-%#@####&=<,:;--:-=:;--:;-;-;-:;-:;>;:;:;;,>>;;:;;:;;:>,;;;;-*++@$%****&&$@@+@#$*;,133333211<22221<,,>>>>>>>>>>>>>>>>",
"22211111<<>;&%@####%*:>>::;;:-;;;--;----;:--;;;>;;;>::;;;:-::-;;>>::;;;=&++$%:1111>*%%@@@$&=>23322223333332222222222222222222222",
"<<<<<<<<<<>:;%@###@$&:-;;;:;;:;;=-:-;--:-----:;;;;;;:;,--;:--;;;:;;:;:=&$+@$:11122<,-%#@@%*;2222111111111111111<<<<<<<<<<<<<<<<<",
">:::;;,;;:>;-%@@##@#&==>;-;:;;;;---;--:=--==;;,--->;;;:;;-;:-:-;;-;::-*&#+$&<1<>::::,&%@#*=,2221,;:>:>:::;>:;;;::>>,>::>>>>:>>>>",
"::;::::;;::--$#@##@@$*;-;;--;:;;==;**==*==*=---;--;:-;;;-;-:;;:;;;=---&$+O$&12,:;>:;;&%@#=;11221:;;;;:-:-::-;:-->:>>::::::>:::::",
";:;::;:;;:;;&#@@##@@#&-=-;====--=*&*&&&&&&&&*=*===-=-==-=-==-====*-&*&&@Oo$&11>::;:-;*%@#&;<122<:;;;;;:;;=-:--=:;;:::::;;;-;;:;;",
":;;;::;;-;;&&#@@##@@@%-;-*&&&&&&&&%%%$$$$$$&&&&&&&&&&&&&&&&&&&&&&&&&%$@Ooo#%,,;>;:;=&%%@#&;<111>;:;-:;--:=-;:;-;-;>;;:-:;;:-;-;;",
";>;;;--;:;:=&#@@###@@#&&*%&&&&&&$$####@@+++@#%%&&&&&&&&&&&&&&&&&&&&$#+OooX@%;:-->---%$#+#&;,11,;;;;:;---;;;:-;:;;-;::-:-::-;:;-:",
":;;:;;;;-:;&$#+@###@@@#$#$$$$$$##@@@@+XX...XXO@@@###############+++OOooXXO@$&;;;;-;*%#OX@&->11>::;-;:----::--:->:;:;;:;;-;:-;-:;",
":;:;:;-:;--*##+@##$#@@O++++@@++++++OX.........o++OOOOOOOOOOOOOOOXXXX.oXXO++@&**===*%$+oX@$=-<<:;;:;;-;-:;:;;:;:-;;--:;;:--;::;;-",
"-:-;--:;-=*&@++@#$$#@@++OXXXXXXXXXXXXX..................ooooooooooXXXXXXO+++#%&&%%$#+OXO+#==;::;;;:-:;;;;:;:;:;-;:;:;;-;;;:-;:;;",
"--::;-;;==&$O++@#$$$#@@+++ooooooooooooooooooooooo.....XXXXXXXXXXXXXXXXXX+++++#$##@+oOoO++@%&=:;;;-----:---:;:-;;:;:;:;;-::--:->:",
";;--:===--*#+++@#$$$$#@@+++++++++++++++oooOOoooooooooooooooooooooooooooo++++++@+OOo+++++++@%**==;---;=-:-:--;::--;;:-;;-:;;:;:-;",
"-:;--:-;==&OXO+##$$$$$#@@++++++++@@@+@@@#$&&&&&&&&%%%%%%%%%%%%%%%%%%%%%%%%%%%%%%@@+++++++++@$&&=;==-=-;-;;-;-;:;---;:;;;:;:;:;-;",
"-:-;--=-*&#X.o+##$$$$$$$###@@@@@@##@@@@$*&*********&&&&&&&&&&&&&&&&&&&&&&&&&&&&&%$$##@@@++++O#&&**-====;-=;-;:-;=>;-;----:;:-;;:",
";;;:----*&O..o+##$$$$&****&%%%$#####@@#&*:<233222222222222222222222222222211<<,;=*&%&%%###@+oO#$&&*&**==:--;--::-==;-;--:--;::--",
"-;;-;:;*&#X..o+@#$%&&&*****&&&%&$$#@@@$&>332222333333333333333333333333322222221<;-*&&&%$%$#@o@$$%&&&*=:-;-;;:;;;-=-;=-;----;;--",
"-=-;-;=&&O...O+@$%&*-><1222,,:;*%&#@@#&&11<<<<<11111111<<<11<<<111<<<1111111111<<,,>:>:;=*%&&&&$$%$$%&&=--;-=:;;;---========---=",
"&&&***&&@X..X+@$&&->1322222<311>-&&#@#&*<<<,,>>>>>>>,>,,>>>>>>>>>>>,>>>>>>>>>>>>>,>:::<<>;-*&&&&%%$$$$%&*-==-=-;*-=&*&&&&&&&&&&&",
"#%%%&&$@X..X+@$&&;<3332<,>,<>:;-;=*$@@%*,<<,>>::;;;>::;>>>::;:;;;>;,;;;-:-;;;--;;;;;<,<1122221<<;&%%$$$%%*=****&&%$$#######$$$$#",
"####$@+X..X+#$&&-<221<::;-;::---====#O#*1<<>:,;:;:;;;-;;,;::->:;:-;;>;--:;;;;:-:;>;-;;,<1111233321-&&%$$##$$##@@@+++++++@@######",
"####+XX..X+@$&=-,21<>:,::;<;;-<-;=-*%O@&,<<>,;;---;->--:;;:;;;-;-;:;;:-:;;;:;:;;:;:;-;;::;>:11333331,&%#OXXXXXX........XXXOO+@##",
"@@+XX...XO@&=;:,21<,:;::--;;-;;-;-;=&OX$=,>>;;--;;;;:;;;;;-;:;:;:-;-:-:-:;;;;;;;-;;=:;;;;;;;-,111112<<*%o..................XO+++",
"......XOO@&-:,122<>:-:-;--;:;:;-;::&&+X@&;>>;;:-:;-;:-:;;:;-;-;;;:;:-:;;-;-:;---;;:;--:;;-;---::,;;,:::&@.....XOO++++Oo.........",
".XXoO++@#&->1222<<;;;-:=;;:;;-:;-:=*&@.X&=::;;--;-;:-:-:-;-:;:;:;-;::>;:-;:;;;;;:;-;-;;=;-::-->;;;-:=-=*&o..X+#%$$==*&%#OX......",
"+++@###%*->1222<<:;;---:-;-:--;=-;=**@.X%&;:;;;-;-:;---;;=-;:;--:-;;-:::;;>;:-;;---:--=:-;--;;;;:;;:--*&%+..X&&:<<,;;;-=%%OooOO+",
"###%&&**->1221<>>:;;-=--=:>--=:--;=**+.X$&:::-:-;;---:---=;=-:;:--;::;:;;::::;;:-;:----=-=;:--::;;:;:-&&$@.X@&:222223222:=%@XXO+",
"$$&*=;:,<1221,:;>;;-;--=:-:-:-;;;-=**#XX@%:>;::;;:-;:-:;:-----;;:--:::;;:;::;;:;;:--:;;-;;;;:;;--;->;-*%#+.X%*22211122221<:&++@#",
"$%*;:,<<<<<<,:;:;;;:-=-<=--=-=---===%$O.+%-;:::::;;:---:-::-;:;:;;-:;;:;;;;;:;;;;;;;-;-;:-::-;->---:;;&%#O.O&*21<<,,<2221>;*$@#$",
"$&-:>:,:;:;:<-;:-;:-=;:--=;=:;;---==&$O.+#&::;:,:::;-;-;:-;;;-:-;---:-:-:::;;-;;;;;;;>---;==;--:;;;;;-&%@O.O*=21,>>:,>,,>:;-&#@$",
"%*;,:;;=;------;;=;:----=::;--;;-===*$X.o@&=;;;:;,;;=;-----;;-:;;--;;>-::->:;:-;->;--:;;=-;=:-:;-;;;-*&%@O.O*-21,>:::,:;;;=*%@#$",
"$*><;::-----:;-;-;:=:--:;--:-=-=:===&@X.o+#&=;;;:::-:;;,;:;-;;-;->----;:;;;---;:;;:-:;-;;=;;-:-:;-:-;*&%@O.O*-21>;:;:;;;--*&$+#$",
"%&=,;;;;:;=;-::-=--:==------=-:-;;=&$+Xoo+@&&=-:;;-:-:<;:----;;--:;--;;-;:;:;:-;-:-:-:;--=-;;-;-==;-=*&%@XXO*-21::;;:-;=-==%#+#$",
"%%&;::;;-;;;;:-:-:-----==-;-:--;;**&#+.oo+@#&*-;:;:-:-----:-:-:-:;=-:=;-:--;:;-;:-;-;-===-----=-;=-=;&*$+XXO*-21::;:--===*&%#+##",
"%%&&==-;;--;;;:=;-==--=;:=-;-:;==*&$+X.oo+@@%**;>:;;-;;-;-=:;--:-:-=;-;--:;:--;;::-;=-;==:-;=-=--;--=*&$+XXO*-21:;:-;;==*&*$#++#",
"$$$&&=;-;=;-;:;;::-----:-=;===**&%$@+.Xo++@+O$&&&;;;-;-;;;==-;;-;-==>;--:;;---;;;-;--=--=-=;=*-*--=-*&&#+.XO*-11;;-;-===**&$#++#",
"%%#$&&*-;--;-:---:;=*=-===****&&%$@+.Xo++@@+OX+#&&**=*=;=====--;---=--;;;:;:;-=:=---=-===;-=;;*-;=-==*&@X.X+*-11:;=-==*==&*$#++#",
"%%##$$&***=**==*=***********&&%$#++.Xo++@@@@OXX++#%&&&&*=&***;--=-==;----=;=-=--=*===-==*-====-=--=-=&%+X.X+*=11;--====*&*&$#++#",
"%%#@@##$&**************&&&&&$##++o.Xoo+@@@@@+OXXX++OOO++@@#$&**=*****=*=*****=**&*&*===*=*-==-==--;==&#+X.X+*=11;-===-*=*&*$#++#",
"%%#@+oO+@#########$$####@@@@+++X..Xoo++@@@@@@@OOX.........XXO@#%&&&&&**&&&&&&**&&&&&&****&=*=-=---==*$@+X..+&=,>:=-==*==&*&$#+++",
"%%$#ooooO+XXXXXXXXXXXXXXXXXXXXXXXXoo+@@@@@@@@@@OOOXXXXX.......+OO++++@@++++++@@OO++++##$$%&%&==-==-&&$+XX..O#&*--*==*=*&*&$$#+++",
"%$&%&&&&$$%%%$$$$$$%%$$$$$$$$$$$$$$$$##@@@@@##@@@+OOXXXXX............................XXXX+@$$&-===*%@++XX...+&&&&=&*&&&&$&$#++++",
"%%&&***&&&&&&&&&&&&&&&&&&&&&&&&&&&&&&%%$#@@@@@###@@+OOOOOXX................................XO+##$#+++XXX....++#&%%%%$$$$$$#+XX++",
"%%*:<<<<<<<<<<<<<<<<<<<<<<<,,,,,,::::==&&$#@+@@@###@@@@+OOOOOOOOoo............................................OOOoooXXXXXX..X+++",
"$*:1222222211111111111222221<,<<,>>::::==&##OoO+@@@#@@@@@@@@@@+++++OX.................ooo..XXXXoooooOOO+OXXXXXXXXXXXXXXXXXXX++++",
"$=<22211<<<<<1111111<<,:;::,:;;::;-:-;;:;&$$OX.oO+@#@@@@@@@@@@@@@@@++O...XXXXXX.....OO++@@+++++@@@@@@@@@###+++++++++++++++++++++",
"$=121<,::::>;>>,;:>>;;;;--;-;:;;--:;:>-:;&$$OX.XXO@#@@@@@@@@@@@@@@@@@+OOOOOOOOOOOoOO+@###$##$###############+++++++++++++++++++#",
"$=11,::::;;;;-:;:-;;-;-;-;-:;;:;;;;-;--::&$$OX.XX+@##@####@@@@@@@@####@@@@@@@@@@@#####$$$%%%%%%%%%%$$$$$$$$$$$$$$$$$$$$$$$$+++#$",
"$=1<>;;:;;>::;----;:;-::-:-::::>:--;;-;-;&$$OX.XX+@@###$$$$$$$####$$$$$$$%%%$$$$$%%%%$$$$%%%==============================&#++#$",
"$=1>;;:-:;;-;-:;=;;-::;;:->;;::;;:;:-;:;:*$$+X.XXo++##%%%%%%%%%%%%%%%%%%%%%%%%%%$$$$$$$=;:>>>><1111111111111111111111<<>::=$++#$",
"$=<:-:;--;->;:-:;;:;;:;;>::;;;::;;--;:-:;*$$+X..XXo++$%==============================-<1122222222222222222222222222221<>:;=&++#$",
"%=<,-;->;--:;;:-;=-;:-:;--;;;;;----::-:;-&$$+X..XXo++$=<33222222222222222222222222222222222222222222222222222222222211>>;-&&XX##",
"%=,::-;;:-:;;:;=-:-:;--;->;:;:;;;-;;--:;:&$$+X...Xo++$>32222222222111111111111111111111221<<<<<<<<<<<<<<<<<<<<<<<<>><<<:-=&&XX##",
"&=<,;;-:-:-:;;:-=-;;->;--:;::;:;--;-:;-:;&$$+X....X++$<2221111111111111111111111111<<<<<>>>>>:>>>>>><>><><:><<>>>>:>>>:;==&$+X+#",
"&=,::::-;-;---;=---;;;:-:;;:;;--:;-:--;;-&$$+X....X++$<221<<<<<<<<<<<<<<<<<<<<<<<<<>>>>:>::>:>;:>:>><>::::;:;:::>:>:::;-==&$+X+#",
"&=>:--::-;=;--=-=;;;-:-:-:;;::;-;;;-:--;>&$$+X....X++$<12<>>:>>:>:<>:<>>:<<:>:><::;:::::>:>::;:-;:;:;:::-;-:-;;;:;:>;:--=*&$+X++",
"&*;:;;;-;----;=--;:::-;-;--:--:--:-:;:>-:&$$+X....X++$>11<;><:>>:>>:><::<::<:>:::::<;:;>:<::>-;;;;::;:;:;-:;->::-:;:;-;-=*&$+XX+",
"#&;;;;-;--=-;--:=:-;::-;=-;;;--:-;=;-;---*$$+X....X++$><1<>:;::;:::<:<>:>:>>:;;;:>>>:;<:;:>:-;:;:;->::-;:;;:;;--;->;:;--=*&$+XX+",
"#&;;;;-=-=-;-;--:;;;;-;--=;;-:---=:-;;-;-*$$+X....Xo+$:<1<>;::;::;::<:::::::;::;<;<<;:;;:;;:;-;--:;;--;:-::-;->---:-;=--=*&$#XX+",
"#&;;;;=-=-=;=:;;-=;--;--=-=-;;--;-;:;;---*$$+X....Xo+$:<1<<<;;<;:<;;:;;;;;::-;->::-:-:->::;;-;;;--;->--;:--;--:;;;-;=--==*&$#XX+",
"##;;--*===-=;-;--;-;;=-==--;-;--;:--;-:>-*$$+X....XX+$;<<><::;:;<;:-:;-;--;:;:;;--;;>-::->:;:-;->;--:;;-;:-:-:;-;;;--=--=*&$#XX+",
"##*===&&&*&=;;-;;-;---=---;-;-=;=;-;-;-;=&$$+X....XXX$;><>1:1;;:::-:;;<;:;----;->--;-;:;;;-;-;:;;:-:;-;:-:;-:-:;-:-;=-=-=*&$#.X+",
"##$&&&$%#$$&*;-;-;;;=-=-=-===--;=-----==&&$$+X.....XXX=;<>:::-:-;-:-:<;:----;;--:;;;;;-;:;:;:-;-:-:-:;-;--;;-;-==;---=-==*&$#.X+",
"##@@+++OOO+#%%**&*&===*=************&&&&%$$#+X.....XoX#=;>:;;:::;:-:-----:;:-:-:;-;:-;-:--;:;-;:-;-;-===----;=-;=-=:=-=-=*&$#.X+",
"##@+oooXXXoo+@##$$&&&&************&&&%%$$##++X.....Xoo#*=;:::;-;;;;-:;-;--:;--:-:;-;-;--:;:--;;::-;=-;==:-;-;-;-;----=--=*&$#.X+",
"$$$$##@++oXXooooooO++#$$$$$%$$$$$$$$##@@+++++X.....Xoo+#*=;;:;;-;;;--;:;;=--;;-;-==>;--:;;---;;;-;--=--=-=;-=-=--=-==--==*&$#.X+",
"$$######@+oooXoXXXXXXOOO+++++++++OOOOOOooooXXX.....Xoo++#$&-;;;;-;;;;;:;=;----;=-;=--;;;:;:;-=:-;--=-===;-=;;=-;=-=-=;===*&$+.X+",
"###+++++#@@@@+ooooX.X.....XXXXXXX...................oo####$&*************=--:-:-;--:=----:-;-;--=-==-=-=-=-==-=--=-==-=-=*&$+.X+",
"##+++$$*****&$$++++OoooXX...........................oo$$####$$$$$$$$$$$$&*=----;-----=--;-=--=-=-=-==-=-=-==-==---==-=-=**$$X.++",
"#++&-;;>>>>:-=*%$$#++++++oXXXX..XXXXXXXXXXXXXXXXXXXX++$$##++++++++++++##&$&***==-==*===*=======*========*=*===-=-=-=-==*&&$#X.++",
"#+&-<12222111>:;=*$%%%#++oooXXXXXXXXXXXXXXXXXXXXXXXX++$$###+XXXXXXXXXXX+$#$&**==--===*==*==*=*====*====*=*=*==*==*====*&&&$#..++",
"++=<11<<<::><111<>;=*$$##+++ooooo+++++++++++++++++++##$$####+++XXXXXXXXX+##$$$&&************************************&&&&&$#+XX++",
"++-<1<>:::::>>><121<:;=*$##+XXXooo++++++++++++++++++##$$######+++++++++XX+##$$$$$$$$$$$$$$$$$$$$$$$$$$$$$$$$$$$$$$$$$$$$##++XX++",
"#+;1<>::>:::::::>>121<<>;=*$$$$$$$$$$$$$$$$$$$%%%%%%&&&$$$$$######++++++XXX+#########################################+++++XX+++#",
"#+;1>:;;;;;;;;;;:::<<111,:;;;;;;;;;;;;;;;;;;;;-=====****&&&$#########++++XXXXXXXXXXX+++++++++++++++++++++++++++++++XXXXXXXXX++##",
"#+;1>:---;->;;--;::::<12211<<<<<<<<<<<<<<<<<<,,>>>:;;;;;;;;;;;-=&++##$+++++o+++++++++++++++++++++++OO+OOOOOOOOOOOOOOOOOOOO+++###",
"#+;1>;-;;--:;::;-;-;;;:<<<<<<<<<<<<<<<<<<<<<<<<<<,>>,,,,,,,,,>>;=&XX+##@OO@$=--;::;;;;;;;;;;;;;;;;;;;;;;;---=====*******=&$@####",
"#+;<>;:-:-:;-:---;->--;::>::;:-;::>:>::;:-;:;:;>>>>><<22222211<<;=+XX+$#@#$;:<2222222222222222222222222222222222222221111:-$$@#$",
"#+;>>--:;;;;;--;;--:;--:>:>::;:-;:;:;:::-;:::-;;;;;;:>,<,,,,,,::<=++X+$$#&;,<22211111<<<<<<<<<<<,,<,<,,,,,,,,,,,,,,,,<1122<:%#$$",
"#+;<>-:;-;:-;-:-:-:;-;;;;::-;->::-:-:->::;;-;;;--;-;--;:--;--:==<&+X.+$$$*;,2221,,:><1,:,:>>:::,>::>::>>,:;::>:;:::;:;;:111,&$$$",
"#+;>>:-:;-;-;--:;:-:;-;--;:;:;;--;;>-:::>:;:-;-;;--:;;-;:-:-:;==:&+X.+$$$=;<<,,<<,:>>,>>;:;:::::>::;::::::;>::,::;:::;::;,:;*$$$",
"##;>>;:;;;:---;:;-:--:--;;;;::->--;-;:;;;-;-;:;;;-:;-;:-:;-:-:-=-$+X.X##$*;,::::,,,><>>,;;::::::>:::;>::,>>;>>>:;:::;:;:;;-*&#$$",
"##-:>;;;;;:>->:--:;:-:-;:;:;->:>>>:;<:;:>:-;:;:;-;::-;:;;:;;--;=-$+X.X#@#%;>:::>:<>::>:;;>,,:;,:>;:>::>>:::>:,:>::;::;:;;-=*&#$$",
"##*--:;::;;;<;;;;;:;;:;-;--:;;<;<<;:;;:;;:;-;--:;;--;:-::-;-;--*=$+X..+#$%;>>:>:,>:>;;:;;:;;:;:;;:>;>>:::,::::;:;;;;;:;::;**$@#$",
"##$*==-;->::-:-:;;::;;-;;;--;-::-:-:->::;;-;;;--;-;--;:--;--;;-*=$+X..+@#%;>>>:>>>,::;;;::;;;;;,;;::::::;:;::::::;::::;:;:=*++#$",
"#$+$*&&&*****&*******&&&**&&&&**&&&&&&&===*&==&$+$$&&$&&$$&$$$$$$++X..X##%=:::>:>::;>:;:;;;>;;:>;;;;::;:::::::;:;::::;:;;;*&++$$",
"##+++#@@@@@@@@@@@@@@@@@@@@@@@@@@@@@@++@@@@@@@@@+++++++++++++++++++X...X#@$=-;;;;;;;;;-;;;:;;:;::;;:;-::;:;:;;:;::;:;:;;-;-=%o+$$",
"##+++XXXXXXXXXXXXXXXXXXXXXXXXXXXXXXXXXXX..............................X#@@$*===========-=;-;-;;:;;;;-;;-;;-;;-;-;-;-;;-;--=$o+$$",
"##@+oXXXXXXXXXXXXXXXXXXXXXXXXXXXXXXXX.................................X#@@+$$&&&&&&*********==-;--------------------------*$X+$$",
"$$##+++++oooooooooooooooooooooooXXXXXXXXXXXXXXXXXXXXXXXXXXXXXXXXXXXXXXX#+++++##$$$$&&&%#@@##$%%&&&*======================*&$X+$$",
"$$##++++++XXXXXXo+++++++ooXXXXXXXXXXXXXXXXXXXXXXXXXXXXXXXXXXXXXXXXXXXXX#+++++++XXXXXXXoooooXXXoOO+@#$$$$$$$$$$$$$$$$$$$$$$$+X#$$",
"$$$$$$$##@@@@@@@########++++++++++++++++++++++++++++++++++++++++++++++++++++++++++++++++++++++++OooXXXXXXXXXXXXXXXXXXXXXXXXX+#$$",
"$$$$$$$$################+++++++++++++++++++++++++++++++++++++++++++++++++++++++++++++++++++++++++++++++++++++++++++++++++++###$$",
"++++++++++++++++++++++++++++++++++++++++++++++++++++++++++++++++++++++++++++++++++++++++++++++++++++++++++++++++++++++++++++++++",
"++++++++++++++++++++++++++++++++++++++++++++++++++++++++++++++++++++++++++++++++++++++++++++++++++++++++++++++++++++++++++++++++",
"                                                                                                                                "
};
